####
#
# OBJ File Generated by Meshlab
#
####
# Object r_camera_link.obj
#
# Vertices: 544
# Faces: 1084
#
####
vn -0.0541821279480854 -6.1711159226167931 -1.1759249209684643
v 0.0039999992586672 -0.0208160430192947 -0.0209248159080744
vn 0.1069033088770695 -6.2144264977700887 -0.6114075463460299
v 0.0039999992586672 -0.0209999997168779 -0.0199999995529652
vn -0.0961905609097918 -6.2188104324140934 -0.5824755224099998
v -0.0219999998807907 -0.0209999997168779 -0.0199999995529652
vn -0.0252921400234668 -6.1623574975702100 -1.2257603391022791
v -0.0219999998807907 -0.0208160430192947 -0.0209248159080744
vn -0.6046104786211310 -5.8236877982326147 -1.8838330469969613
v -0.0235347617417574 -0.0208020377904177 -0.0209318883717060
vn -0.2603605664459691 -6.2458355899142619 -0.4467303680578133
v -0.0235477369278669 -0.0209354870021343 -0.0199999995529652
vn 0.0540858854944879 -3.1406612309387727 3.1071537456929934
v 0.0040000001899898 -0.0209999997168779 -0.0000000000000001
vn -0.0654184149136058 -3.1402298332750456 3.0999340088002687
v -0.0219999998807907 -0.0209999997168779 -0.0000000000000001
vn 0.1660178921908045 -6.2441750682609038 -0.4758431555153155
v 0.0048526176251471 -0.0209706258028746 -0.0199999995529652
vn -0.4001977201034202 -3.1041399906898097 2.9684771546812296
v -0.0237775687128305 -0.0209259055554867 -0.0000000000000001
vn -1.3764846755901963 2.7643549707860218 3.5111916454265106
v -0.0162170473486185 -0.0035806531086564 -0.0000000000000000
vn -0.2849340691732370 3.0749278273367318 3.5111915890716281
v -0.0176309272646904 -0.0039829364977777 -0.0000000000000000
vn 0.3538938372519668 -3.1117845974024694 2.9839898432731218
v 0.0056028352119029 -0.0209447778761387 -0.0000000000000001
vn -1.3764847272289349 2.7643549279376618 3.5111916985698493
v 0.0017829533899203 -0.0035806531086564 -0.0000000000000000
vn -0.2849341495623603 3.0749278378734912 3.5111915270233069
v 0.0003690734447446 -0.0039829364977777 -0.0000000000000000
vn 0.8450986085464064 2.9702148690436525 3.5111918923552108
v -0.0010946517577395 -0.0038473026361316 -0.0000000000000000
vn -2.2821337633817826 2.0804407384186696 3.5111918062006326
v -0.0150439646095037 -0.0026947825681418 -0.0000000000000000
vn 0.2377302541582343 -5.8858120983076319 -1.8159980427470201
v 0.0048485784791410 -0.0208431668579578 -0.0209318883717060
vn 0.6856841586193780 -6.1683839709659782 -0.4688560298835820
v 0.0056028352119029 -0.0209447778761387 -0.0199999995529652
vn 0.9901393521949434 -5.7737403426319398 -1.8676423619743896
v 0.0062537579797208 -0.0207051187753677 -0.0209318883717060
vn 1.1950252172894635 -6.1460254760887398 -0.3716290152582800
v 0.0062731108628213 -0.0208144504576921 -0.0199999995529652
vn 0.9381579858700050 -2.9771584176419741 2.9151389221020327
v 0.0071004959754646 -0.0206535756587982 -0.0000000000000001
vn -0.7936801660704991 -6.1476873990264593 -0.4725457184569091
v -0.0237775687128305 -0.0209259055554867 -0.0199999995529652
vn -1.4741892888688990 -5.6590186154891882 -1.8878855331266331
v -0.0249406099319458 -0.0205458886921406 -0.0209318883717060
vn -1.3333329566576921 -6.1122556358131241 -0.4124453998910084
v -0.0249761585146189 -0.0206644479185343 -0.0199999995529652
vn -0.9985299375295132 -2.9583764348653063 2.9201027753643536
v -0.0252614673227072 -0.0206022094935179 -0.0000000000000001
vn 0.8450989453010710 2.9702147372571925 3.5111920122247415
v -0.0190946515649557 -0.0038473026361316 -0.0000000000000000
vn -0.0527248448886786 -5.7081252232304056 -2.3546749426408100
v 0.0039999992586672 -0.0207716394215822 -0.0211480502039194
vn 0.2652971861184414 -5.0047764358248674 -3.6241239808548347
v 0.0048347753472626 -0.0204128511250019 -0.0217715762555599
vn -0.0277426302836957 -5.6979570149159802 -2.3448322874048917
v -0.0219999998807907 -0.0207716394215822 -0.0211480502039194
vn 1.2179840953293530 -6.1324473394987322 -0.4388697303029884
v 0.0070172823034227 -0.0206697545945644 -0.0199999995529652
vn -1.2579196233131764 -4.8230457014353938 -3.6130604224663290
v -0.0248222164809704 -0.0201319493353367 -0.0217715762555599
vn -0.5518197330210904 -4.9640800127556579 -3.6118435784522429
v -0.0234953854233027 -0.0203733053058386 -0.0217715762555599
vn -0.1806873868082501 -5.2199525213535543 -3.4878632310662763
v 0.0039999992586672 -0.0203753970563412 -0.0217410679906607
vn 0.0319529549724811 -5.2241413882283894 -3.4906621536651632
v -0.0219999998807907 -0.0203753970563412 -0.0217410679906607
vn 0.8136564482383929 -4.9208739297933342 -3.6199537322926338
v 0.0061769173480570 -0.0202814936637878 -0.0217715762555599
vn 1.6341745266635006 -5.6317366773451925 -1.8972820600125975
v 0.0069773378781974 -0.0205354299396276 -0.0209318883717060
vn 1.8249541159768006 -5.9081733894606376 -0.4288551290521794
v 0.0071004959754646 -0.0206535756587982 -0.0199999995529652
vn -1.9687555809116146 -5.8666842089505575 -0.4188178367238876
v -0.0252614673227072 -0.0206022094935179 -0.0199999995529652
vn 2.2894919558734652 -5.4062685316924748 -1.8171364155156371
v 0.0076885907910764 -0.0202846247702837 -0.0209318883717060
vn 2.5463785581330027 -5.7251774960700708 -0.3289542555139076
v 0.0077253240160644 -0.0203756708651781 -0.0199999995529652
vn 2.5648092793803090 -5.7086798606323725 -0.3929963932014594
v 0.0084414444863796 -0.0200571641325951 -0.0199999995529652
vn 1.6069483794177557 -2.6718545357737948 2.8956352814747044
v 0.0086329579353333 -0.0199719835072756 -0.0000000000000001
vn -2.2432798873370148 -5.4255834196676300 -1.8377994335120755
v -0.0256164334714413 -0.0203142389655113 -0.0209318883717060
vn -2.6467560974222160 -5.6740160968193250 -0.3729237900177562
v -0.0256561972200871 -0.0204181764274836 -0.0199999995529652
vn -2.6454500779013626 -5.6741881604434079 -0.3762223783285871
v -0.0263250805437565 -0.0201063267886639 -0.0199999995529652
vn -1.6385284232227930 -2.6554205135448852 2.9083969789616066
v -0.0266975965350866 -0.0199326500296593 -0.0000000000000001
vn -1.8642072978691790 -4.6110019981526040 -3.6471962394347743
v -0.0254554860293865 -0.0199149176478386 -0.0217715762555599
vn 1.4018184033226637 -4.7915351723613711 -3.6287554151268511
v 0.0068568564020097 -0.0201220940798521 -0.0217715762555599
vn -2.7400809943757198 -5.1901415892109046 -1.8419460915179462
v -0.0262699835002422 -0.0200079903006554 -0.0209318883717060
vn -0.0728699768557945 -4.3714715571354716 -4.3667067050528363
v 0.0039999992586672 -0.0201213210821152 -0.0221213195472956
vn 0.1879623588961083 -3.6138817859797352 -5.0254791393389944
v 0.0048132934607565 -0.0197431258857250 -0.0224359892308712
vn 0.0098374628525628 -4.3678723603857623 -4.3538231151717071
v -0.0219999998807907 -0.0201213210821152 -0.0221213195472956
vn -0.4073855544018901 -3.6071827625009134 -5.0001865789044206
v -0.0234341025352478 -0.0197060424834490 -0.0224359892308712
vn -0.9812716679201550 -3.4807128934548310 -4.9894331748482683
v -0.0246379505842924 -0.0194877125322819 -0.0224359892308712
vn -2.3667572199443532 -4.3951884839549953 -3.6277242152090663
v -0.0260663013905287 -0.0196286812424660 -0.0217715762555599
vn 1.9261560034651679 -4.6047107231408724 -3.6267012295620642
v 0.0075227818451822 -0.0198872964829206 -0.0217715762555599
vn 2.8394393714936301 -5.1306429057413503 -1.8730276899003910
v 0.0083780903369188 -0.0199486613273621 -0.0209318883717060
vn 0.5905935695534287 -3.5833442407996854 -4.9953342322594612
v 0.0060573252849281 -0.0196221824735403 -0.0224359892308712
vn 1.0155453587829246 -3.4725050008647598 -5.0099621567308352
v 0.0066693457774818 -0.0194787941873074 -0.0224359892308712
vn -0.1986247687908465 -3.4872590084838642 -5.2190519693857507
v 0.0039999992586672 -0.0197199359536171 -0.0223895180970430
vn 0.0677198112512395 -3.4903453066948473 -5.2236707636540762
v -0.0219999998807907 -0.0197199359536171 -0.0223895180970430
vn -3.2495869898250254 -5.2612919779798704 -0.4133116860257893
v -0.0266975965350866 -0.0199326500296593 -0.0199999995529652
vn 3.1685048022659785 -5.3029892863334060 -0.4134735181764592
v 0.0086329579353333 -0.0199719835072756 -0.0199999995529652
vn -2.8450730403884488 -4.1013061190862912 -3.6270085839538795
v -0.0266713052988052 -0.0192579943686724 -0.0217715762555599
vn -3.3802235712149131 -4.7955461877247600 -1.8518266370837670
v -0.0269167646765709 -0.0196117069572210 -0.0209318883717060
vn 3.8627490658223853 -4.9316100163047993 -0.3438404154884712
v 0.0090800188481808 -0.0196218173950911 -0.0199999995529652
vn 3.4692303572311527 -4.7356936239218799 -1.8247613371184146
v 0.0090213213115931 -0.0195374544709921 -0.0209318883717060
vn 2.2003487192570916 -2.2113935845949659 2.9047097932194497
v 0.0099477209150791 -0.0189421754330397 -0.0000000000000001
vn 2.4414019093004620 -4.3532952368769857 -3.6263369279018813
v 0.0081673283129930 -0.0195732396095991 -0.0217715762555599
vn -3.8813252368929843 -4.9112468983421582 -0.3826148242995747
v -0.0269812364131212 -0.0197081845253706 -0.0199999995529652
vn -2.2113935846016286 -2.2003487192532902 2.9047097957942252
v -0.0279421750456095 -0.0189477205276489 -0.0000000000000001
vn -1.6497946945890212 -3.2170123627330991 -5.0034665039230379
v -0.0257492996752262 -0.0190383400768042 -0.0224359892308712
vn 1.4009900381159779 -3.3494542628114461 -5.0019614988118795
v 0.0072647253982723 -0.0192689113318920 -0.0224359892308712
vn -0.0732258384044094 -2.3632932209942243 -5.7077157730082053
v 0.0039999992586672 -0.0191480498760939 -0.0227716378867626
vn 0.0537256515049977 -1.8314593271798498 -5.9162441197988365
v 0.0047862571664155 -0.0189002510160208 -0.0228593908250332
vn 0.0334572616426594 -2.3645919273115421 -5.6984988218534625
v -0.0219999998807907 -0.0191480498760939 -0.0227716378867626
vn -3.8335881460459911 -4.4440830335138370 -1.8422826533259120
v -0.0275130867958069 -0.0191457960754633 -0.0209318883717060
vn -3.8854323793398846 -4.9097280040598488 -0.3714284359483037
v -0.0275877360254526 -0.0192282162606716 -0.0199999995529652
vn -0.2043822876751100 -1.8877340335557466 -5.8949374216354382
v -0.0233569741249084 -0.0188662689179182 -0.0228593908250332
vn -0.5401339694475586 -1.8674514748265074 -5.8716281814338460
v -0.0244060475379229 -0.0186769179999828 -0.0228593908250332
vn -2.0621279454411203 -2.9725423197656422 -5.0085494183719597
v -0.0262892842292786 -0.0187074933201075 -0.0224359892308712
vn 0.3452658870787249 -1.8905072836027792 -5.8837007025305148
v 0.0059068142436445 -0.0187924150377512 -0.0228593908250332
vn 3.8698182958066494 -4.9212941990783676 -0.3760657280082486
v 0.0096942111849785 -0.0191407427191734 -0.0199999995529652
vn -3.2882485311067078 -3.7558291253850591 -3.6276304918673681
v -0.0272294338792562 -0.0188219081610441 -0.0217715762555599
vn 1.7695402495910482 -3.1551424138661019 -5.0081100884015051
v 0.0078393034636974 -0.0189889501780272 -0.0224359892308712
vn 2.9225007360987787 -4.0465996922535483 -3.6270612542773257
v 0.0087693147361279 -0.0191883798688650 -0.0217715762555599
vn 3.9192017288735874 -4.3656811748307298 -1.8540453129047725
v 0.0096138566732407 -0.0190561991184950 -0.0209318883717060
vn -0.9052450336044185 -1.6948991092051473 -5.8780226714244090
v -0.0253503397107124 -0.0182953737676144 -0.0228593908250332
vn 0.7446704058062041 -1.7521970413598524 -5.8859867007914755
v 0.0069399527274072 -0.0184906497597694 -0.0228593908250332
vn -2.3914789220362636 -2.7315381361200743 -5.0029172600925049
v -0.0267879683524370 -0.0183178223669529 -0.0224359892308712
vn -4.3851182854456372 -4.3580997542655373 -0.4118760079415353
v -0.0279421750456095 -0.0189477223902941 -0.0199999995529652
vn 3.3618531687470483 -3.6895507532380956 -3.6269640466769686
v 0.0093237087130547 -0.0187381189316511 -0.0217715762555599
vn 2.1256708710098380 -2.9432388828151916 -5.0023876376134950
v 0.0083771012723446 -0.0186450909823179 -0.0224359892308712
vn -0.1160525845453817 -1.1892600788606866 -6.1671263520507269
v 0.0039999992586672 -0.0189000368118286 -0.0228209719061852
vn 0.0719655540341994 -1.2256402273789855 -6.1616447729505284
v -0.0219999998807907 -0.0189000368118286 -0.0228209719061852
vn -4.3656819299068603 -3.9192006006372599 -1.8540469770682051
v -0.0280561987310648 -0.0186138562858105 -0.0209318883717060
vn -3.6895507532380956 -3.3618531687470492 -3.6269640466769686
v -0.0277381185442209 -0.0183237083256245 -0.0217715762555599
vn 4.3581029323236420 -4.3851200760912796 -0.4118753974184965
v 0.0099477209150791 -0.0189421754330397 -0.0199999995529652
vn 4.4440823012371071 -3.8335892709462809 -1.8422810390236628
v 0.0101457964628935 -0.0185130871832371 -0.0209318883717060
vn 1.1135514340444974 -1.5491797874869324 -5.8854925392546154
v 0.0078834854066372 -0.0179613418877125 -0.0228593908250332
vn -4.9213014235110721 -3.8698097953467587 -0.3760656273837481
v -0.0281407423317432 -0.0186942107975483 -0.0199999995529652
vn -2.6718544642382893 -1.6069485402642258 2.8956353944862956
v -0.0289719831198454 -0.0176329575479031 -0.0000000000000001
vn -4.9316063126037202 -3.8627541546930577 -0.3438403316069350
v -0.0286218170076609 -0.0180800184607506 -0.0199999995529652
vn 4.9097214547563777 -3.8854400362437449 -0.3714285434521941
v 0.0102282166481018 -0.0185877364128828 -0.0199999995529652
vn 4.9112468983421573 -3.8813252368929843 -0.3826148242995747
v 0.0107081849128008 -0.0179812368005514 -0.0199999995529652
vn 2.6554205135448563 -1.6385284232228046 2.9083969789616066
v 0.0109326504170895 -0.0176975969225168 -0.0000000000000001
vn -0.0281863090388287 -0.5168953123514407 -6.2400430561695677
v 0.0047570806927979 -0.0179881192743778 -0.0230000000447035
vn 0.0370923883015104 -0.4954771172084375 -6.2435665839359080
v 0.0049497964791954 -0.0179850962013006 -0.0230000000447035
vn 0.0048557750914478 -0.6158935619425413 -6.2222162983799221
v 0.0039999992586672 -0.0179999992251396 -0.0230000000447035
vn 0.0173886595658844 -0.5938468042554692 -6.2264053647381941
v -0.0219999998807907 -0.0179999992251396 -0.0230000000447035
vn -0.0271051999397217 -0.4619088617122178 -6.2489242922626271
v -0.0232717860490084 -0.0179253686219454 -0.0230000000447035
vn -0.0893379560159519 -0.4990284808427740 -6.2417580131236230
v -0.0237600803375244 -0.0178967155516148 -0.0230000000447035
vn -2.6739976765645617 -2.4364879451298740 -5.0086130544976317
v -0.0272430684417486 -0.0178721342235804 -0.0224359892308712
vn 0.0677302606298146 -0.4608280078312209 -6.2484648041750956
v 0.0057403449900448 -0.0178689043968916 -0.0230000000447035
vn 0.1430926551434251 -0.4913234605490072 -6.2408262637099963
v 0.0061313160695136 -0.0178114417940378 -0.0230000000447035
vn 3.7558291253850582 -3.2882485311067078 -3.6276304918673676
v 0.0098219085484743 -0.0182294342666864 -0.0217715762555599
vn 2.4364879451298735 -2.6739976765645612 -5.0086130544976317
v 0.0088721346110106 -0.0182430688291788 -0.0224359892308712
vn -1.2545072504351573 -1.4385992058236352 -5.8856727517453518
v -0.0262323673814535 -0.0176834110170603 -0.0228593908250332
vn -4.7356929469297002 -3.4692310791749468 -1.8247624843850985
v -0.0285374540835619 -0.0180213209241629 -0.0209318883717060
vn -0.1331161618746669 -0.4496273166230383 -6.2479924611939754
v -0.0241496749222279 -0.0177813731133938 -0.0230000000447035
vn -0.2072906887871521 -0.4677558090979366 -6.2408687914342806
v -0.0246074590831995 -0.0176458414644003 -0.0230000000447035
vn -4.0465996922535483 -2.9225007360987787 -3.6270612542773266
v -0.0281883794814348 -0.0177693143486977 -0.0217715762555599
vn 4.7955461877247600 -3.3802235712149131 -1.8518266370837670
v 0.0106117073446512 -0.0179167650640011 -0.0209318883717060
vn 0.2051802177262103 -0.4206159593702840 -6.2481169893998745
v 0.0065703638829291 -0.0176094565540552 -0.0230000000447035
vn -2.9432388828151912 -2.1256708710098380 -5.0023876376134941
v -0.0276450905948877 -0.0173771008849144 -0.0224359892308712
vn -0.2539506547080126 -0.3945237861405048 -6.2479457698227945
v -0.0249004587531090 -0.0174629110842943 -0.0230000000447035
vn 2.7315381361200739 -2.3914789220362636 -5.0029172600925049
v 0.0093178227543831 -0.0177879687398672 -0.0224359892308712
vn 1.4385992058236354 -1.2545072504351575 -5.8856727517453526
v 0.0086834114044905 -0.0172323677688837 -0.0228593908250332
vn 4.1013061190862921 -2.8450730403884488 -3.6270085839538799
v 0.0102579947561026 -0.0176713056862354 -0.0217715762555599
vn -5.3029891967707607 -3.1684991640768363 -0.4134739168837276
v -0.0289719831198454 -0.0176329594105482 -0.0199999995529652
vn -5.1306429845504598 -2.8394391305281039 -1.8730291026659360
v -0.0289486609399319 -0.0173780899494886 -0.0209318883717060
vn -4.3532949404512653 -2.4414025717267243 -3.6263370198919671
v -0.0285732392221689 -0.0171673279255629 -0.0217715762555599
vn 2.6279936441445892 1.5172721065101271 -3.6651918466351434
v -0.0102990381419659 -0.0107500003650784 -0.0230000000447035
vn 1.5172721065101267 2.6279936441445888 -3.6651918466351434
v -0.0097500002011657 -0.0112990383058786 -0.0230000000447035
vn -0.0000004710229795 3.0345456929999002 -3.6651909047345144
v -0.0089999996125698 -0.0115000000223517 -0.0230000000447035
vn -1.5172725775331064 2.6279935179344940 -3.6651915361946150
v -0.0082499999552965 -0.0112990383058786 -0.0230000000447035
vn -2.6279934086331438 1.5172729854512532 -3.6651912673450249
v -0.0077009620144963 -0.0107500003650784 -0.0230000000447035
vn -3.0345452219764852 -0.0000004710238516 -3.6651920633153683
v -0.0074999998323619 -0.0099999997764826 -0.0230000000447035
vn 5.2612919779798712 -3.2495869898250249 -0.4133116860257893
v 0.0109326504170895 -0.0176975969225168 -0.0199999995529652
vn 0.4022662325230104 -0.3340965277038083 -6.2388226956771451
v 0.0080151949077845 -0.0166175700724125 -0.0230000000447035
vn 0.2811179777375885 -0.4494165343430959 -6.2375432917438678
v 0.0072498279623687 -0.0172968655824661 -0.0230000000447035
vn 0.3158731063646500 -0.3558930795040190 -6.2469378353240312
v 0.0073425653390586 -0.0172145552933216 -0.0230000000447035
vn 3.0345456929998997 -0.0000004710229795 -3.6651909047345228
v -0.0104999998584390 -0.0099999997764826 -0.0230000000447035
vn 5.1901415892109037 -2.7400809943757203 -1.8419460915179462
v 0.0110079906880856 -0.0172699838876724 -0.0209318883717060
vn -1.5491797647503538 -1.1135515947085333 -5.8854925417090431
v -0.0269613415002823 -0.0168834850192070 -0.0228593908250332
vn 2.9725423197656418 -2.0621279454411208 -5.0085494183719597
v 0.0097074937075377 -0.0172892846167088 -0.0224359892308712
vn -3.1551421614353785 -1.7695407912665921 -5.0081101677471365
v -0.0279889497905970 -0.0168393030762672 -0.0224359892308712
vn 5.6741881604434079 -2.6454500779013626 -0.3762223783285871
v 0.0111063271760941 -0.0173250809311867 -0.0199999995529652
vn 2.9583764348652970 -0.9985299375295293 2.9201027753643536
v 0.0116022098809481 -0.0162614677101374 -0.0000000000000001
vn -0.3340964941174852 -0.4022662551277819 -6.2388226972270644
v -0.0256175696849823 -0.0170151945203543 -0.0230000000447035
vn 4.3951884839549953 -2.3667572199443532 -3.6277242152090663
v 0.0106286816298962 -0.0170663017779589 -0.0217715762555599
vn -5.7086846203762889 -2.5647998412175470 -0.3929963003533943
v -0.0290571637451649 -0.0174414440989494 -0.0199999995529652
vn -2.9771583510382396 -0.9381581185513280 2.9151387606995418
v -0.0296535752713680 -0.0161004960536957 -0.0000000000000001
vn -1.5172725775331064 2.6279935179344940 -3.6651915361946257
v -0.0082499999552965 0.0087009621784091 -0.0230000000447035
vn -5.4062681291420622 -2.2894926208591202 -1.8171363644955749
v -0.0292846243828535 -0.0166885908693075 -0.0209318883717060
vn -5.7251771628231296 -2.5463792458802663 -0.3289542382440266
v -0.0293756704777479 -0.0167253240942955 -0.0199999995529652
vn -4.6047103998806689 -1.9261566242810815 -3.6267011380447975
v -0.0288872960954905 -0.0165227819234133 -0.0217715762555599
vn 5.6740160968193250 -2.6467560974222164 -0.3729237900177562
v 0.0114181768149137 -0.0166561976075172 -0.0199999995529652
vn 1.6948991092051475 -0.9052450336044185 -5.8780226714244090
v 0.0092953741550446 -0.0163503400981426 -0.0228593908250332
vn 3.2170123627330991 -1.6497946945890212 -5.0034665039230379
v 0.0100383404642344 -0.0167493000626564 -0.0224359892308712
vn 5.4255834196676282 -2.2432798873370152 -1.8377994335120755
v 0.0113142393529415 -0.0166164338588715 -0.0209318883717060
vn 0.3945237861405048 -0.2539506547080126 -6.2479457698227945
v 0.0084629114717245 -0.0159004591405392 -0.0230000000447035
vn -3.3494540509942512 -1.4009905623803347 -5.0019614020033103
v -0.0282689109444618 -0.0162647254765034 -0.0224359892308712
vn 4.6110019981526040 -1.8642072978691788 -3.6471962394347739
v 0.0109149180352688 -0.0164554864168167 -0.0217715762555599
vn -0.3558931837714090 -0.3158733150589182 -6.2469378021461353
v -0.0262145549058914 -0.0163425654172897 -0.0230000000447035
vn -0.4206159722623594 -0.2051802534003720 -6.2481169852200473
v -0.0266094561666250 -0.0155703639611602 -0.0230000000447035
vn -0.4494166398819260 -0.2811180683505271 -6.2375432678465250
v -0.0262968651950359 -0.0162498280405998 -0.0230000000447035
vn -1.7521970228378587 -0.7446706658422596 -5.8859866381131676
v -0.0274906493723392 -0.0159399528056383 -0.0228593908250332
vn 3.4807128829855465 -0.9812715121504967 -4.9894331894871984
v 0.0104877129197121 -0.0156379509717226 -0.0224359892308712
vn -5.9081733894606376 -1.8249541159768006 -0.4288551290521794
v -0.0296535752713680 -0.0161004960536957 -0.0199999995529652
vn -4.7915351723613711 -1.4018184033226637 -3.6287554151268506
v -0.0291220936924219 -0.0158568564802408 -0.0217715762555599
vn -5.6317366773451933 -1.6341745266635006 -1.8972820600125975
v -0.0295354295521975 -0.0159773379564285 -0.0209318883717060
vn 5.8666842089505575 -1.9687555809116146 -0.4188178367238876
v 0.0116022098809481 -0.0162614677101374 -0.0199999995529652
vn 5.6590186154891882 -1.4741892888688988 -1.8878855331266333
v 0.0115458890795708 -0.0159406103193760 -0.0209318883717060
vn -3.4725050008647598 -1.0155453587829244 -5.0099621567308352
v -0.0284787937998772 -0.0156693458557129 -0.0224359892308712
vn 4.8230457014353938 -1.2579196233131760 -3.6130604224663285
v 0.0111319497227669 -0.0158222168684006 -0.0217715762555599
vn 0.4677558090979367 -0.2072906887871521 -6.2408687914342815
v 0.0086458418518305 -0.0156074594706297 -0.0230000000447035
vn 1.8674515106812262 -0.5401338873369325 -5.8716281595704567
v 0.0096769183874130 -0.0154060479253531 -0.0228593908250332
vn 6.1122556358131241 -1.3333329566576921 -0.4124453998910084
v 0.0116644483059645 -0.0159761589020491 -0.0199999995529652
vn 3.1041399906897906 -0.4001977201034377 2.9684771546812296
v 0.0119259059429169 -0.0147775691002607 -0.0000000000000001
vn -6.1324473513534796 -1.2179840343603430 -0.4388696367914954
v -0.0296697542071342 -0.0160172823816538 -0.0199999995529652
vn -3.1117845915196423 -0.3538938675074068 2.9839897979913852
v -0.0299447774887085 -0.0146028352901340 -0.0000000000000001
vn 1.8609962052764804 2.4643584474940119 3.5111911028959191
v -0.0204105377197266 -0.0031920690089464 -0.0000000000000000
vn -5.7737403426319398 -0.9901393521949434 -1.8676423619743894
v -0.0297051183879375 -0.0152537580579519 -0.0209318883717060
vn -6.1460254642205907 -1.1950252783274131 -0.3716289180329597
v -0.0298144500702620 -0.0152731109410524 -0.0199999995529652
vn -4.9208739297933350 -0.8136564482383927 -3.6199537322926343
v -0.0292814932763577 -0.0151769174262881 -0.0217715762555599
vn 6.1476873990264602 -0.7936801660704993 -0.4725457184569091
v 0.0119259059429169 -0.0147775691002607 -0.0199999995529652
vn 5.8236877982326147 -0.6046104786211310 -1.8838330469969609
v 0.0118020381778479 -0.0145347621291876 -0.0209318883717060
vn -0.4913234605490072 -0.1430926551434251 -6.2408262637099963
v -0.0268114414066076 -0.0151313161477447 -0.0230000000447035
vn -1.8905072836027794 -0.3452658870787249 -5.8837007025305148
v -0.0277924146503210 -0.0149068143218756 -0.0228593908250332
vn -3.5833442407996858 -0.5905935695534287 -4.9953342322594629
v -0.0286221820861101 -0.0150573253631592 -0.0224359892308712
vn 4.9640798926014593 -0.5518197289315608 -3.6118436939221032
v 0.0113733056932688 -0.0144953858107328 -0.0217715762555599
vn 3.6071826985385580 -0.4073852064849570 -5.0001867860018727
v 0.0107060428708792 -0.0144341019913554 -0.0224359892308712
vn 0.4496274504870021 -0.1331160433037661 -6.2479924468992083
v 0.0087813735008240 -0.0151496753096581 -0.0230000000447035
vn 0.4990283738581859 -0.0893378054888174 -6.2417580364975498
v 0.0088967159390450 -0.0147600797936320 -0.0230000000447035
vn 1.8877341637264962 -0.2043823812153291 -5.8949373406553809
v 0.0098662693053484 -0.0143569745123386 -0.0228593908250332
vn -6.1683839709659791 -0.6856841586193780 -0.4688560298835820
v -0.0299447774887085 -0.0146028352901340 -0.0199999995529652
vn -5.0047764358248674 -0.2652971861184415 -3.6241239808548351
v -0.0294128507375717 -0.0138347754254937 -0.0217715762555599
vn -5.8858120983076319 -0.2377302541582343 -1.8159980427470204
v -0.0298431664705276 -0.0138485785573721 -0.0209318883717060
vn -3.6138817859797352 -0.1879623588961084 -5.0254791393389953
v -0.0287431254982948 -0.0138132935389876 -0.0224359892308712
vn -0.4608280078312210 -0.0677302606298146 -6.2484648041750956
v -0.0268689040094614 -0.0147403450682759 -0.0230000000447035
vn -1.8314593271798498 -0.0537256515049977 -5.9162441197988365
v -0.0279002506285906 -0.0137862572446465 -0.0228593908250332
vn -0.4954771172084375 -0.0370923883015104 -6.2435665839359080
v -0.0269850958138704 -0.0139497965574265 -0.0230000000447035
vn 6.2458355899142628 -0.2603605664459691 -0.4467303680578133
v 0.0119354873895645 -0.0145477373152971 -0.0199999995529652
vn 3.1402298332750362 -0.0654184149136181 3.0999340088002678
v 0.0120000001043081 -0.0130000002682209 -0.0000000000000001
vn -2.2821342686329205 2.0804399738526111 3.5111922971342944
v 0.0029560360126197 -0.0026947825681418 -0.0000000000000000
vn 0.4619088756684409 -0.0271052260915432 -6.2489242899598985
v 0.0089253690093756 -0.0142717864364386 -0.0230000000447035
vn -6.2441750669888298 -0.1660179805709227 -0.4758431817399570
v -0.0299706254154444 -0.0138526177033782 -0.0199999995529652
vn -3.1406612309387953 -0.0540858854935313 3.1071537457613481
v -0.0299999993294477 -0.0130000002682209 -0.0000000000000001
vn 6.2188104324140978 -0.0961905609097918 -0.5824755224100006
v 0.0120000001043081 -0.0130000002682209 -0.0199999995529652
vn 5.6979570149159837 -0.0277426302836957 -2.3448322874048944
v 0.0117716398090124 -0.0130000002682209 -0.0211480502039194
vn 6.1623574975702002 -0.0252921400234668 -1.2257603391022771
v 0.0118160434067249 -0.0130000002682209 -0.0209248159080744
vn 4.3678723681268510 0.0098374571689491 -4.3538231092113175
v 0.0111213214695454 -0.0130000002682209 -0.0221213195472956
vn 5.2241413882283840 0.0319529549724811 -3.4906621536651601
v 0.0113753974437714 -0.0130000002682209 -0.0217410679906607
vn 2.3645919198445404 0.0334572591933708 -5.6984988264327132
v 0.0101480502635241 -0.0130000002682209 -0.0227716378867626
vn 3.4903453061684138 0.0677198552088483 -5.2236707628660470
v 0.0107199363410473 -0.0130000002682209 -0.0223895180970430
vn 0.5938468042554692 0.0173886595658844 -6.2264053647381878
v 0.0089999996125698 -0.0130000002682209 -0.0230000000447035
vn 1.2256402273789859 0.0719655540341994 -6.1616447729505301
v 0.0099000371992588 -0.0130000002682209 -0.0228209719061852
vn -0.5168953123514407 0.0281863090388287 -6.2400430561695686
v -0.0269881188869476 -0.0137570807710290 -0.0230000000447035
vn -6.1711159180201056 0.0541821342399544 -1.1759249451674283
v -0.0298160426318645 -0.0129999993368983 -0.0209248159080744
vn -6.2144264753177048 -0.1069034598527635 -0.6114075929677587
v -0.0299999993294477 -0.0130000002682209 -0.0199999995529652
vn -5.7081252232303976 0.0527248448886786 -2.3546749426408082
v -0.0297716390341520 -0.0129999993368983 -0.0211480502039194
vn -4.3714715571354672 0.0728699768557945 -4.3667067050528328
v -0.0291213206946850 -0.0129999993368983 -0.0221213195472956
vn -5.2199525213535587 0.1806873868082501 -3.4878632310662789
v -0.0293753966689110 -0.0129999993368983 -0.0217410679906607
vn -2.3632932209942217 0.0732258384044094 -5.7077157730082018
v -0.0281480494886637 -0.0129999993368983 -0.0227716378867626
vn -3.4872590084838633 0.1986247687908465 -5.2190519693857489
v -0.0287199355661869 -0.0129999993368983 -0.0223895180970430
vn -1.1892600788606853 0.1160525845453817 -6.1671263520507198
v -0.0279000364243984 -0.0129999993368983 -0.0228209719061852
vn -0.6158935619425419 -0.0048557750914478 -6.2222162983799283
v -0.0269999988377094 -0.0129999993368983 -0.0230000000447035
vn -2.6279932824225232 1.5172734564751049 -3.6651909569038819
v -0.0077009620144963 0.0092500001192093 -0.0230000000447035
vn 0.6158935619425417 0.0048557750914478 -6.2222162983799283
v 0.0089999996125698 0.0129999993368983 -0.0230000000447035
vn 1.1892600788606853 -0.1160525845453817 -6.1671263520507198
v 0.0099000371992588 0.0129999993368983 -0.0228209719061852
vn 2.3632932209942217 -0.0732258384044094 -5.7077157730082009
v 0.0101480502635241 0.0129999993368983 -0.0227716378867626
vn 3.4872590084838633 -0.1986247687908465 -5.2190519693857489
v 0.0107199363410473 0.0129999993368983 -0.0223895180970430
vn 4.3714715571354672 -0.0728699768557945 -4.3667067050528336
v 0.0111213214695454 0.0129999993368983 -0.0221213195472956
vn 5.2199525213535587 -0.1806873868082501 -3.4878632310662780
v 0.0113753974437714 0.0129999993368983 -0.0217410679906607
vn 5.7081252232303967 -0.0527248448886786 -2.3546749426408078
v 0.0117716398090124 0.0129999993368983 -0.0211480502039194
vn 6.1711159180201056 -0.0541821342399544 -1.1759249451674283
v 0.0118160434067249 0.0129999993368983 -0.0209248159080744
vn -6.2188104324140969 0.0961905609097918 -0.5824755224100006
v -0.0299999993294477 0.0130000002682209 -0.0199999995529652
vn 6.2144264753177048 0.1069034598527635 -0.6114075929677587
v 0.0120000001043081 0.0130000002682209 -0.0199999995529652
vn 3.1406612309388025 0.0540858854934933 3.1071537457613472
v 0.0120000001043081 0.0130000002682209 0.0000000000000001
vn -3.1402298332750247 0.0654184149135918 3.0999340088002687
v -0.0299999993294477 0.0130000002682209 0.0000000000000001
vn 2.6255560168901257 1.6256759229398774 3.5111926901528223
v -0.0214008688926697 -0.0021057287231088 0.0000000000000000
vn 3.0355204627527232 0.5674366095123941 3.5111914665016535
v -0.0219318922609091 -0.0007349980878644 0.0000000000000000
vn -3.0881009115622686 -0.0000000000000235 3.5111923335299200
v 0.0040000001899898 0.0000000000000000 0.0000000000000000
vn -2.8795686791293833 1.1155507601811041 3.5111911912052922
v 0.0037298887036741 -0.0014449666487053 -0.0000000000000000
vn 2.6279935179344940 -1.5172725775331060 -3.6651915361946181
v -0.0102990381419659 -0.0092500001192093 -0.0230000000447035
vn -0.5938468042554692 -0.0173886595658844 -6.2264053647381870
v -0.0269999988377094 0.0130000002682209 -0.0230000000447035
vn -1.2256402273789859 -0.0719655540341994 -6.1616447729505310
v -0.0279000364243984 0.0130000002682209 -0.0228209719061852
vn -2.3645919198445404 -0.0334572591933709 -5.6984988264327123
v -0.0281480494886637 0.0130000002682209 -0.0227716378867626
vn -3.4903453061684133 -0.0677198552088483 -5.2236707628660470
v -0.0287199355661869 0.0130000002682209 -0.0223895180970430
vn -4.3678723681268510 -0.0098374571689491 -4.3538231092113167
v -0.0291213206946850 0.0130000002682209 -0.0221213195472956
vn -5.2241413882283840 -0.0319529549724811 -3.4906621536651601
v -0.0293753966689110 0.0130000002682209 -0.0217410679906607
vn -5.6979570149159837 0.0277426302836957 -2.3448322874048939
v -0.0297716390341520 0.0130000002682209 -0.0211480502039194
vn -6.1623574975702002 0.0252921400234668 -1.2257603391022773
v -0.0298160426318645 0.0130000002682209 -0.0209248159080744
vn -0.0000004710229795 3.0345456929998997 -2.6179944024450719
v -0.0089999996125698 -0.0115000000223517 -0.0199999995529652
vn 1.5172721065101271 2.6279936441445892 -2.6179934605444428
v -0.0097500002011657 -0.0112990383058786 -0.0199999995529652
vn -1.5172725775331060 2.6279935179344940 -2.6179937709849681
v -0.0082499999552965 -0.0112990383058786 -0.0199999995529652
vn 0.0000000000000000 0.0000000000000000 -6.2831853071795862
v -0.0089999996125698 -0.0099999997764826 -0.0199999995529652
vn 2.6279936441445884 1.5172721065101265 -2.6179934605444428
v -0.0102990381419659 -0.0107500003650784 -0.0199999995529652
vn -2.6279934086331447 1.5172729854512537 -2.6179940398345556
v -0.0077009620144963 -0.0107500003650784 -0.0199999995529652
vn 3.0345456929999002 -0.0000004710229795 -2.6179944024450719
v -0.0104999998584390 -0.0099999997764826 -0.0199999995529652
vn -3.0345452219764848 -0.0000004710238516 -2.6179932438642233
v -0.0074999998323619 -0.0099999997764826 -0.0199999995529652
vn 2.6279935179344940 -1.5172725775331064 -2.6179937709849681
v -0.0102990381419659 -0.0092500001192093 -0.0199999995529652
vn -2.6279932824225236 -1.5172734564751054 -3.6651909569038823
v -0.0077009620144963 -0.0092500001192093 -0.0230000000447035
vn 1.5172721065101267 2.6279936441445888 -3.6651918466351479
v -0.0097500002011657 0.0087009621784091 -0.0230000000447035
vn -0.0000004710229795 3.0345456929999002 -3.6651909047345148
v -0.0089999996125698 0.0085000004619360 -0.0230000000447035
vn -1.5172725775331064 -2.6279935179344940 -2.6179937709849681
v -0.0082499999552965 -0.0087009621784091 -0.0199999995529652
vn -2.6279932824225232 -1.5172734564751049 -2.6179943502757039
v -0.0077009620144963 -0.0092500001192093 -0.0199999995529652
vn 1.5172721065101265 -2.6279936441445884 -2.6179934605444428
v -0.0097500002011657 -0.0087009621784091 -0.0199999995529652
vn -0.0000004710229795 -3.0345456929999002 -2.6179944024450719
v -0.0089999996125698 -0.0085000004619360 -0.0199999995529652
vn 1.5172721065101271 -2.6279936441445892 -3.6651918466351434
v -0.0097500002011657 -0.0087009621784091 -0.0230000000447035
vn -1.5172725775331060 -2.6279935179344935 -3.6651915361946181
v -0.0082499999552965 -0.0087009621784091 -0.0230000000447035
vn 2.6279935179344940 1.5172725775331064 -3.6651915361946186
v -0.0102990381419659 0.0092500001192093 -0.0230000000447035
vn -0.0000004710229794 -3.0345456929999002 -3.6651909047345157
v -0.0089999996125698 -0.0085000004619360 -0.0230000000447035
vn 0.8450989453010669 2.9702147372572170 2.7719932949548416
v -0.0190946515649557 -0.0038473026361316 -0.0010000000474975
vn -0.2849340691732338 3.0749278273367411 2.7719937181079581
v -0.0176309272646904 -0.0039829364977777 -0.0010000000474975
vn -1.3764846755901901 2.7643549707860426 2.7719936617530747
v -0.0162170473486185 -0.0035806531086564 -0.0010000000474975
vn 0.0000000000000000 0.0000000000000000 6.2831853071795880
v -0.0179999992251396 0.0000000000000000 -0.0010000000474975
vn 0.8450986085464010 2.9702148690436734 2.7719934148243759
v -0.0010946517577395 -0.0038473026361316 -0.0010000000474975
vn -0.2849341495623622 3.0749278378735001 2.7719937801562793
v 0.0003690734447446 -0.0039829364977777 -0.0010000000474975
vn -1.3764847272289276 2.7643549279376840 2.7719936086097317
v 0.0017829533899203 -0.0035806531086564 -0.0010000000474975
vn 0.0000000000000000 0.0000000000000000 6.2831853071795862
v -0.0000000003874302 0.0000000000000000 -0.0010000000474975
vn 1.8609962052764706 2.4643584474940283 2.7719942042836663
v -0.0204105377197266 -0.0031920690089464 -0.0010000000474975
vn 1.8609964525665383 2.4643580275688062 2.7719935595818765
v -0.0024105384945869 -0.0031920690089464 -0.0010000000474975
vn 1.8609964525665563 2.4643580275688284 3.5111917475977101
v -0.0024105384945869 -0.0031920690089464 -0.0000000000000000
vn -3.0881009115622677 -0.0000000000000076 3.5111923335299169
v -0.0139999995008111 -0.0000000000000000 0.0000000000000000
vn -2.8795682337028667 1.1155514795697201 3.5111917298641591
v -0.0142701109871268 -0.0014449666487053 0.0000000000000000
vn -2.2821337633817800 2.0804407384186923 2.7719935009789536
v -0.0150439646095037 -0.0026947825681418 -0.0010000000474975
vn -2.2821342686329298 2.0804399738526298 2.7719930100452910
v 0.0029560360126197 -0.0026947825681418 -0.0010000000474975
vn 2.6255560168901386 1.6256759229399012 2.7719926170267639
v -0.0214008688926697 -0.0021057287231088 -0.0010000000474975
vn 2.6255563447469634 1.6256758120948536 2.7719933806148207
v -0.0034008687362075 -0.0021057287231088 -0.0010000000474975
vn 2.6255563447469510 1.6256758120948100 3.5111919265647655
v -0.0034008687362075 -0.0021057287231088 0.0000000000000000
vn -2.8795682337028659 1.1155514795697401 2.7719935773154272
v -0.0142701109871268 -0.0014449666487053 -0.0010000000474975
vn -2.8795686791293846 1.1155507601811177 2.7719941159742940
v 0.0037298887036741 -0.0014449666487053 -0.0010000000474975
vn 3.0355204627527232 0.5674366095124099 2.7719938406779323
v -0.0219318922609091 -0.0007349980878644 -0.0010000000474975
vn 3.0355202951398361 0.5674370421713685 2.7719935452919464
v -0.0039318925701082 -0.0007349980878644 -0.0010000000474975
vn 3.0355202951398428 0.5674370421713621 3.5111917618876407
v -0.0039318925701082 -0.0007349980878644 0.0000000000000000
vn -3.0881009115622686 0.0000000000000107 2.7719929736496667
v -0.0139999995008111 -0.0000000000000000 -0.0010000000474975
vn -3.0881009115622686 0.0000000000000001 2.7719929736496667
v 0.0040000001899898 0.0000000000000000 -0.0010000000474975
vn 3.0355204627527228 -0.5674366095124098 2.7719938406779323
v -0.0219318922609091 0.0007349980878644 -0.0010000000474975
vn 3.0355204627527268 -0.5674366095124335 3.5111914665016539
v -0.0219318922609091 0.0007349980878644 0.0000000000000000
vn 3.0355202951398370 -0.5674370421713686 2.7719935452919464
v -0.0039318925701082 0.0007349980878644 -0.0010000000474975
vn 3.0355202951398406 -0.5674370421713978 3.5111917618876385
v -0.0039318925701082 0.0007349980878644 0.0000000000000000
vn -2.8795682337028663 -1.1155514795697492 3.5111917298641666
v -0.0142701109871268 0.0014449666487053 0.0000000000000000
vn -2.8795682337028681 -1.1155514795697294 2.7719935773154205
v -0.0142701109871268 0.0014449666487053 -0.0010000000474975
vn -2.8795686791293846 -1.1155507601811174 2.7719941159742940
v 0.0037298887036741 0.0014449666487053 -0.0010000000474975
vn -2.8795686791293664 -1.1155507601811443 3.5111911912052922
v 0.0037298887036741 0.0014449666487053 0.0000000000000000
vn 2.6255560168901391 -1.6256759229399012 2.7719926170267639
v -0.0214008688926697 0.0021057287231088 -0.0010000000474975
vn -0.2849340691732339 -3.0749278273367411 2.7719937181079581
v -0.0176309272646904 0.0039829364977777 -0.0010000000474975
vn 0.8450989453010670 -2.9702147372572170 2.7719932949548416
v -0.0190946515649557 0.0038473026361316 -0.0010000000474975
vn 1.8609962052764708 -2.4643584474940283 2.7719942042836663
v -0.0204105377197266 0.0031920690089464 -0.0010000000474975
vn -2.2821337633817800 -2.0804407384186927 2.7719935009789536
v -0.0150439646095037 0.0026947825681418 -0.0010000000474975
vn -1.3764846755901903 -2.7643549707860431 2.7719936617530747
v -0.0162170473486185 0.0035806531086564 -0.0010000000474975
vn 2.6255563447469630 -1.6256758120948536 2.7719933806148207
v -0.0034008687362075 0.0021057287231088 -0.0010000000474975
vn -0.2849341495623622 -3.0749278378735001 2.7719937801562793
v 0.0003690734447446 0.0039829364977777 -0.0010000000474975
vn 0.8450986085464011 -2.9702148690436734 2.7719934148243759
v -0.0010946517577395 0.0038473026361316 -0.0010000000474975
vn 1.8609964525665388 -2.4643580275688066 2.7719935595818765
v -0.0024105384945869 0.0031920690089464 -0.0010000000474975
vn -2.2821342686329298 -2.0804399738526298 2.7719930100452910
v 0.0029560360126197 0.0026947825681418 -0.0010000000474975
vn -1.3764847272289273 -2.7643549279376840 2.7719936086097317
v 0.0017829533899203 0.0035806531086564 -0.0010000000474975
vn 2.6255560168901249 -1.6256759229399194 3.5111926901528219
v -0.0214008688926697 0.0021057287231088 0.0000000000000000
vn 2.6255563447469581 -1.6256758120948704 3.5111919265647655
v -0.0034008687362075 0.0021057287231088 0.0000000000000000
vn -2.2821337633817800 -2.0804407384187114 3.5111918062006322
v -0.0150439646095037 0.0026947825681418 0.0000000000000000
vn -2.2821342686329280 -2.0804399738526418 3.5111922971342948
v 0.0029560360126197 0.0026947825681418 0.0000000000000000
vn 1.8609962052764752 -2.4643584474940492 3.5111911028959177
v -0.0204105377197266 0.0031920690089464 0.0000000000000000
vn 1.8609964525665428 -2.4643580275688248 3.5111917475977101
v -0.0024105384945869 0.0031920690089464 0.0000000000000000
vn -3.1041399906897666 0.4001977201034111 2.9684771546812287
v -0.0299259051680565 0.0147775691002607 0.0000000000000001
vn -0.0540858533547506 3.1406612320460359 3.1071537669030191
v -0.0219999998807907 0.0209999997168779 0.0000000000000001
vn -1.3764846755902063 -2.7643549707860675 3.5111916454265111
v -0.0162170473486185 0.0035806531086564 0.0000000000000000
vn -1.3764847272289324 -2.7643549279377009 3.5111916985698537
v 0.0017829533899203 0.0035806531086564 0.0000000000000000
vn 0.8450989453010704 -2.9702147372572272 3.5111920122247495
v -0.0190946515649557 0.0038473026361316 0.0000000000000000
vn 0.8450986085463984 -2.9702148690436840 3.5111918923552103
v -0.0010946517577395 0.0038473026361316 0.0000000000000000
vn -2.6554205135448656 1.6385284232227686 2.9083969789616071
v -0.0289326496422291 0.0176975969225168 0.0000000000000001
vn -2.9583764348695603 0.9985299375237247 2.9201027785306453
v -0.0296022091060877 0.0162614677101374 0.0000000000000001
vn 0.0654184149136113 3.1402298332750056 3.0999340088002652
v 0.0040000001899898 0.0209999997168779 0.0000000000000001
vn -0.2849340691732299 -3.0749278273367651 3.5111915890716281
v -0.0176309272646904 0.0039829364977777 0.0000000000000000
vn 0.4001977201034277 3.1041399906897746 2.9684771546812301
v 0.0057775690220296 0.0209259055554867 0.0000000000000001
vn -0.2849341495623535 -3.0749278378735281 3.5111915270233074
v 0.0003690734447446 0.0039829364977777 0.0000000000000000
vn 0.9985297584333146 2.9583765183643984 2.9201029031893682
v 0.0072614676319063 0.0206022094935179 0.0000000000000001
vn 1.6385282487443229 2.6554205948910670 2.9083968587379836
v 0.0086975973099470 0.0199326500296593 0.0000000000000001
vn 3.1117845974024378 0.3538938372519543 2.9839898432731222
v 0.0119447782635689 0.0146028352901340 0.0000000000000001
vn 2.9771583451420414 0.9381581488756607 2.9151388078239497
v 0.0116535760462284 0.0161004960536957 0.0000000000000001
vn 2.6718544642293303 1.6069485402750767 2.8956353924595071
v 0.0109719838947058 0.0176329575479031 0.0000000000000001
vn 2.2113935845949557 2.2003487192570761 2.9047097932194492
v 0.0099421758204699 0.0189477205276489 0.0000000000000001
vn -0.3538940170078348 3.1117845575491527 2.9839896615641570
v -0.0236028358340263 0.0209447778761387 0.0000000000000001
vn -0.9381582977109626 2.9771583162027646 2.9151388764329100
v -0.0251004956662655 0.0206535756587982 0.0000000000000001
vn -1.6069485402642116 2.6718544642382756 2.8956353944862960
v -0.0266329571604729 0.0199719835072756 0.0000000000000001
vn -2.2003487192532778 2.2113935846016157 2.9047097957942247
v -0.0279477201402187 0.0189421754330397 0.0000000000000001
vn -0.0000004710229795 3.0345456929998997 -2.6179944024450719
v -0.0089999996125698 0.0085000004619360 -0.0199999995529652
vn 1.5172721065101271 2.6279936441445892 -2.6179934605444428
v -0.0097500002011657 0.0087009621784091 -0.0199999995529652
vn -1.5172725775331060 2.6279935179344940 -2.6179937709849681
v -0.0082499999552965 0.0087009621784091 -0.0199999995529652
vn 0.0000000000000000 0.0000000000000000 -6.2831853071795862
v -0.0089999996125698 0.0099999997764826 -0.0199999995529652
vn 2.6279935179344935 1.5172725775331060 -2.6179937709849681
v -0.0102990381419659 0.0092500001192093 -0.0199999995529652
vn -2.6279932824225236 1.5172734564751051 -2.6179943502757039
v -0.0077009620144963 0.0092500001192093 -0.0199999995529652
vn 3.0345456929999002 0.0000004710229795 -3.6651909047345712
v -0.0104999998584390 0.0099999997764826 -0.0230000000447035
vn 3.0345456929998997 0.0000004710229795 -2.6179944024450719
v -0.0104999998584390 0.0099999997764826 -0.0199999995529652
vn -3.0345452219764848 0.0000004710238516 -3.6651920633153638
v -0.0074999998323619 0.0099999997764826 -0.0230000000447035
vn -3.0345452219764852 0.0000004710238515 -2.6179932438642233
v -0.0074999998323619 0.0099999997764826 -0.0199999995529652
vn -0.4022662551277819 0.3340964941174851 -6.2388226972270644
v -0.0260151941329241 0.0166175700724125 -0.0230000000447035
vn -0.3158733150589182 0.3558931837714090 -6.2469378021461344
v -0.0253425650298595 0.0172145552933216 -0.0230000000447035
vn -0.2811181553520133 0.4494164514072031 -6.2375432896806950
v -0.0252498276531696 0.0172968655824661 -0.0230000000447035
vn -0.2051804089571550 0.4206161395059098 -6.2481169523172531
v -0.0245703645050526 0.0176094565540552 -0.0230000000447035
vn -0.1430927299227156 0.4913235862806934 -6.2408262401435497
v -0.0241313166916370 0.0178114417940378 -0.0230000000447035
vn -0.0677302341446292 0.4608281046159723 -6.2484647903968424
v -0.0237403456121683 0.0178689043968916 -0.0230000000447035
vn -0.0370923813120300 0.4954770867202027 -6.2435665891338843
v -0.0229497961699963 0.0179850962013006 -0.0230000000447035
vn 2.6279936441445888 -1.5172721065101267 -3.6651918466351399
v -0.0102990381419659 0.0107500003650784 -0.0230000000447035
vn -0.4990283738581858 0.0893378054888174 -6.2417580364975498
v -0.0268967151641846 0.0147600797936320 -0.0230000000447035
vn -0.4496274504870021 0.1331160433037661 -6.2479924468992083
v -0.0267813727259636 0.0151496753096581 -0.0230000000447035
vn -0.4619088756684409 0.0271052260915432 -6.2489242899598976
v -0.0269253682345152 0.0142717864364386 -0.0230000000447035
vn -0.4677558090979366 0.2072906887871521 -6.2408687914342806
v -0.0266458410769701 0.0156074594706297 -0.0230000000447035
vn -0.3945237861405048 0.2539506547080126 -6.2479457698227936
v -0.0264629106968641 0.0159004591405392 -0.0230000000447035
vn 2.6279936441445892 -1.5172721065101271 -2.6179934605444428
v -0.0102990381419659 0.0107500003650784 -0.0199999995529652
vn -2.6279934086331447 -1.5172729854512537 -3.6651912673450013
v -0.0077009620144963 0.0107500003650784 -0.0230000000447035
vn 0.5168953123514407 -0.0281863090388287 -6.2400430561695703
v 0.0089881196618080 0.0137570807710290 -0.0230000000447035
vn -1.5172725775331064 -2.6279935179344940 -2.6179937709849681
v -0.0082499999552965 0.0112990383058786 -0.0199999995529652
vn -2.6279934086331438 -1.5172729854512532 -2.6179940398345556
v -0.0077009620144963 0.0107500003650784 -0.0199999995529652
vn 1.5172721065101265 -2.6279936441445884 -2.6179934605444428
v -0.0097500002011657 0.0112990383058786 -0.0199999995529652
vn -0.0000004710229795 -3.0345456929999002 -2.6179944024450719
v -0.0089999996125698 0.0115000000223517 -0.0199999995529652
vn 0.0281862909212904 0.5168953231910079 -6.2400430544556489
v -0.0227570813149214 0.0179881192743778 -0.0230000000447035
vn 1.5172721065101271 -2.6279936441445892 -3.6651918466351461
v -0.0097500002011657 0.0112990383058786 -0.0230000000447035
vn 0.4913234605490073 0.1430926551434251 -6.2408262637099963
v 0.0088114421814680 0.0151313161477447 -0.0230000000447035
vn 0.4608280078312210 0.0677302606298146 -6.2484648041750956
v 0.0088689047843218 0.0147403450682759 -0.0230000000447035
vn 0.3340963355364256 0.4022661656217814 -6.2388227272740142
v 0.0076175699941814 0.0170151945203543 -0.0230000000447035
vn 0.3558931692685313 0.3158734330574280 -6.2469377918055953
v 0.0082145556807518 0.0163425654172897 -0.0230000000447035
vn 0.4954771172084375 0.0370923883015104 -6.2435665839359089
v 0.0089850965887308 0.0139497965574265 -0.0230000000447035
vn 0.4494166398819260 0.2811180683505271 -6.2375432678465259
v 0.0082968659698963 0.0162498280405998 -0.0230000000447035
vn 0.4206159722623594 0.2051802534003720 -6.2481169852200464
v 0.0086094569414854 0.0155703639611602 -0.0230000000447035
vn 0.0893378054888174 0.4990283738581858 -6.2417580364975498
v 0.0057600797154009 0.0178967155516148 -0.0230000000447035
vn 0.1331160433037661 0.4496274504870021 -6.2479924468992083
v 0.0061496752314270 0.0177813731133938 -0.0230000000447035
vn -1.5172725775331060 -2.6279935179344935 -3.6651915361946186
v -0.0082499999552965 0.0112990383058786 -0.0230000000447035
vn -0.0173886595658844 0.5938468042554692 -6.2264053647381843
v 0.0040000001899898 0.0179999992251396 -0.0230000000447035
vn 0.0271052260915432 0.4619088756684409 -6.2489242899598976
v 0.0052717863582075 0.0179253686219454 -0.0230000000447035
vn 0.2072906887871521 0.4677558090979367 -6.2408687914342806
v 0.0066074593923986 0.0176458414644003 -0.0230000000447035
vn 0.2539506093758697 0.3945237754361515 -6.2479457749451388
v 0.0069004590623081 0.0174629110842943 -0.0230000000447035
vn -0.0048557750914478 0.6158935619425416 -6.2222162983799292
v -0.0219999998807907 0.0179999992251396 -0.0230000000447035
vn -0.0000004710229794 -3.0345456929999002 -3.6651909047345144
v -0.0089999996125698 0.0115000000223517 -0.0230000000447035
vn 1.8314593271798498 0.0537256515049977 -5.9162441197988365
v 0.0099002514034510 0.0137862572446465 -0.0228593908250332
vn 3.6138817859797348 0.1879623588961084 -5.0254791393389944
v 0.0107431262731552 0.0138132935389876 -0.0224359892308712
vn 5.0047764358248674 0.2652971861184414 -3.6241239808548351
v 0.0114128515124321 0.0138347754254937 -0.0217715762555599
vn 5.8858120983076327 0.2377302541582343 -1.8159980427470201
v 0.0118431672453880 0.0138485785573721 -0.0209318883717060
vn 6.2441750669888263 0.1660179805709225 -0.4758431817399570
v 0.0119706261903048 0.0138526177033782 -0.0199999995529652
vn -1.8877341637264959 0.2043823812153291 -5.8949373406553818
v -0.0278662685304880 0.0143569745123386 -0.0228593908250332
vn -3.6071826985385576 0.4073852064849570 -5.0001867860018727
v -0.0287060420960188 0.0144341019913554 -0.0224359892308712
vn -4.9640798926014602 0.5518197289315608 -3.6118436939221032
v -0.0293733049184084 0.0144953858107328 -0.0217715762555599
vn -5.8236877982326147 0.6046104786211312 -1.8838330469969611
v -0.0298020374029875 0.0145347621291876 -0.0209318883717060
vn -6.2458355899142601 0.2603605664459689 -0.4467303680578133
v -0.0299354866147041 0.0145477373152971 -0.0199999995529652
vn 1.8905072836027790 0.3452658870787249 -5.8837007025305148
v 0.0097924154251814 0.0149068143218756 -0.0228593908250332
vn 3.5833442407996854 0.5905935695534287 -4.9953342322594620
v 0.0106221828609705 0.0150573253631592 -0.0224359892308712
vn 4.9208739297933333 0.8136564482383928 -3.6199537322926343
v 0.0112814940512180 0.0151769174262881 -0.0217715762555599
vn 5.7737403426319398 0.9901393521949434 -1.8676423619743892
v 0.0117051191627979 0.0152537580579519 -0.0209318883717060
vn 6.1683839709659782 0.6856841586193779 -0.4688560298835820
v 0.0119447782635689 0.0146028352901340 -0.0199999995529652
vn -1.8674515106812262 0.5401338873369325 -5.8716281595704567
v -0.0276769176125526 0.0154060479253531 -0.0228593908250332
vn -3.4807128829855474 0.9812715121504967 -4.9894331894871984
v -0.0284877121448517 0.0156379509717226 -0.0224359892308712
vn -4.8230457014353938 1.2579196233131762 -3.6130604224663285
v -0.0291319489479065 0.0158222168684006 -0.0217715762555599
vn -6.1476873990264593 0.7936801660704992 -0.4725457184569091
v -0.0299259051680565 0.0147775691002607 -0.0199999995529652
vn -5.6590188273440916 1.4741874682523297 -1.8878878824942529
v -0.0295458883047104 0.0159406103193760 -0.0209318883717060
vn 6.1460254760887407 1.1950252172894638 -0.3716290152582801
v 0.0118144508451223 0.0152731109410524 -0.0199999995529652
vn -6.1122605893848414 1.3333141146994880 -0.4124452682306168
v -0.0296644475311041 0.0159761589020491 -0.0199999995529652
vn 1.7521970228378587 0.7446706658422596 -5.8859866381131676
v 0.0094906501471996 0.0159399528056383 -0.0228593908250332
vn 3.4725050008647598 1.0155453587829246 -5.0099621567308352
v 0.0104787945747375 0.0156693458557129 -0.0224359892308712
vn 4.7915351723613711 1.4018184033226637 -3.6287554151268506
v 0.0111220944672823 0.0158568564802408 -0.0217715762555599
vn 5.6317366773451925 1.6341745266635008 -1.8972820600125975
v 0.0115354303270578 0.0159773379564285 -0.0209318883717060
vn 6.1324473394987322 1.2179840953293530 -0.4388697303029885
v 0.0116697549819946 0.0160172823816538 -0.0199999995529652
vn -1.6948991092051473 0.9052450336044185 -5.8780226714244090
v -0.0272953733801842 0.0163503400981426 -0.0228593908250332
vn 1.5491797085628005 1.1135516006382244 -5.8854925475233664
v 0.0089613422751427 0.0168834850192070 -0.0228593908250332
vn -4.6110019981526049 1.8642072978691788 -3.6471962394347739
v -0.0289149172604084 0.0164554864168167 -0.0217715762555599
vn -3.2170123627330991 1.6497946945890212 -5.0034665039230379
v -0.0280383396893740 0.0167493000626564 -0.0224359892308712
vn 3.3494540509942516 1.4009905623803345 -5.0019614020033103
v 0.0102689117193222 0.0162647254765034 -0.0224359892308712
vn 4.6047103998806689 1.9261566242810815 -3.6267011380447975
v 0.0108872968703508 0.0165227819234133 -0.0217715762555599
vn 5.4062681291420613 2.2894926208591202 -1.8171363644955751
v 0.0112846251577139 0.0166885908693075 -0.0209318883717060
vn -1.4385992058236352 1.2545072504351573 -5.8856727517453526
v -0.0266834106296301 0.0172323677688837 -0.0228593908250332
vn 3.1551421614353785 1.7695407912665921 -5.0081101677471356
v 0.0099889505654573 0.0168393030762672 -0.0224359892308712
vn -5.8666817877414017 1.9687471825599574 -0.4188185352587176
v -0.0296022109687328 0.0162614677101374 -0.0199999995529652
vn -5.4255825434925278 2.2432814061008184 -1.8378014970103067
v -0.0293142385780811 0.0166164338588715 -0.0209318883717060
vn 5.9081733894606376 1.8249541159768010 -0.4288551290521794
v 0.0116535760462284 0.0161004960536957 -0.0199999995529652
vn 5.7251771628231287 2.5463792458802659 -0.3289542382440266
v 0.0113756712526083 0.0167253240942955 -0.0199999995529652
vn 5.7086795796255698 2.5648099773907012 -0.3929963782031382
v 0.0110571645200253 0.0174414440989494 -0.0199999995529652
vn -5.6740114092755656 2.6467672433107485 -0.3729236628154311
v -0.0294181760400534 0.0166561976075172 -0.0199999995529652
vn -5.6741881604434070 2.6454500779013621 -0.3762223783285871
v -0.0291063264012337 0.0173250809311867 -0.0199999995529652
vn 4.3532949404512653 2.4414025717267243 -3.6263370198919671
v 0.0105732399970293 0.0171673279255629 -0.0217715762555599
vn -2.9725423197656418 2.0621279454411203 -5.0085494183719597
v -0.0277074929326773 0.0172892846167088 -0.0224359892308712
vn -4.3951884839549953 2.3667572199443532 -3.6277242152090663
v -0.0286286808550358 0.0170663017779589 -0.0217715762555599
vn 5.1306426239354987 2.8394401160710374 -1.8730277433108855
v 0.0109486617147923 0.0173780899494886 -0.0209318883717060
vn -5.1901415892109037 2.7400809943757203 -1.8419460915179462
v -0.0290079899132252 0.0172699838876724 -0.0209318883717060
vn -1.1135516565936661 1.5491797754614482 -5.8854925357563905
v -0.0258834846317768 0.0179613418877125 -0.0228593908250332
vn 4.0465996922535483 2.9225007360987791 -3.6270612542773266
v 0.0101883802562952 0.0177693143486977 -0.0217715762555599
vn 2.9432388828151916 2.1256708710098380 -5.0023876376134941
v 0.0096450913697481 0.0173771008849144 -0.0224359892308712
vn 1.2545070671331942 1.4385991972330543 -5.8856727541112903
v 0.0082323681563139 0.0176834110170603 -0.0228593908250332
vn 2.6739976765645617 2.4364879451298740 -5.0086130544976317
v 0.0092430692166090 0.0178721342235804 -0.0224359892308712
vn -4.1013061190862921 2.8450730403884492 -3.6270085839538799
v -0.0282579939812422 0.0176713056862354 -0.0217715762555599
vn 4.7356936239218799 3.4692303572311523 -1.8247613371184146
v 0.0105374548584223 0.0180213209241629 -0.0209318883717060
vn -2.4364879451298735 2.6739976765645617 -5.0086130544976326
v -0.0268721338361502 0.0182430688291788 -0.0224359892308712
vn -2.7315381361200739 2.3914789220362636 -5.0029172600925049
v -0.0273178219795227 0.0177879687398672 -0.0224359892308712
vn -5.2612919779798704 3.2495869898250254 -0.4133116860257893
v -0.0289326496422291 0.0176975969225168 -0.0199999995529652
vn -4.7955461877247600 3.3802235712149131 -1.8518266370837670
v -0.0286117065697908 0.0179167650640011 -0.0209318883717060
vn 3.6895507532380956 3.3618531687470492 -3.6269640466769686
v 0.0097381193190813 0.0183237083256245 -0.0217715762555599
vn 5.3029892863334069 3.1685048022659785 -0.4134735181764591
v 0.0109719838947058 0.0176329575479031 -0.0199999995529652
vn 0.9052447308523267 1.6948991600601686 -5.8780227453640030
v 0.0073503400199115 0.0182953737676144 -0.0228593908250332
vn -0.7446707201528373 1.7521971939015506 -5.8859866129229177
v -0.0249399524182081 0.0184906497597694 -0.0228593908250332
vn 4.9316100163047993 3.8627490658223858 -0.3438404154884712
v 0.0106218177825212 0.0180800184607506 -0.0199999995529652
vn 0.5401338873369325 1.8674515106812262 -5.8716281595704567
v 0.0064060478471220 0.0186769179999828 -0.0228593908250332
vn -3.7558291253850586 3.2882485311067073 -3.6276304918673681
v -0.0278219077736139 0.0182294342666864 -0.0217715762555599
vn 2.3914789220362631 2.7315381361200739 -5.0029172600925049
v 0.0087879691272974 0.0183178223669529 -0.0224359892308712
vn 2.0621274056047292 2.9725424719111664 -5.0085494633834404
v 0.0082892850041389 0.0187074933201075 -0.0224359892308712
vn -4.9112468983421564 3.8813252368929838 -0.3826148242995747
v -0.0287081841379404 0.0179812368005514 -0.0199999995529652
vn 4.3656811748307298 3.9192017288735874 -1.8540453129047725
v 0.0100561995059252 0.0186138562858105 -0.0209318883717060
vn -0.3452659318609456 1.8905073122391218 -5.8837007108574593
v -0.0239068139344454 0.0187924150377512 -0.0228593908250332
vn 3.2882485311067078 3.7558291253850591 -3.6276304918673676
v 0.0092294346541166 0.0188219081610441 -0.0217715762555599
vn 0.2043823812153291 1.8877341637264959 -5.8949373406553809
v 0.0053569744341075 0.0188662689179182 -0.0228593908250332
vn -4.4440830335138379 3.8335881460459911 -1.8422826533259120
v -0.0281457956880331 0.0185130871832371 -0.0209318883717060
vn -1.7695407912665919 3.1551421614353790 -5.0081101677471356
v -0.0258393026888371 0.0189889501780272 -0.0224359892308712
vn -2.1256708710098380 2.9432388828151912 -5.0023876376134950
v -0.0263771004974842 0.0186450909823179 -0.0224359892308712
vn -4.9097280040598488 3.8854323793398842 -0.3714284359483037
v -0.0282282158732414 0.0185877364128828 -0.0199999995529652
vn -0.0537257369411092 1.8314593270000805 -5.9162441074454994
v -0.0227862577885389 0.0189002510160208 -0.0228593908250332
vn 0.1160525845453817 1.1892600788606862 -6.1671263520507242
v -0.0219999998807907 0.0189000368118286 -0.0228209719061852
vn -0.0719655540341994 1.2256402273789857 -6.1616447729505301
v 0.0040000001899898 0.0189000368118286 -0.0228209719061852
vn 4.9212941990783685 3.8698182958066489 -0.3760657280082487
v 0.0101407431066036 0.0186942107975483 -0.0199999995529652
vn -3.3618531687470488 3.6895507532380956 -3.6269640466769690
v -0.0273237079381943 0.0187381189316511 -0.0217715762555599
vn 0.9812715121504967 3.4807128829855474 -4.9894331894871984
v 0.0066379508934915 0.0194877125322819 -0.0224359892308712
vn 1.6497937870709056 3.2170125200726911 -5.0034669135507119
v 0.0077492999844253 0.0190383400768042 -0.0224359892308712
vn 2.8450730403884492 4.1013061190862912 -3.6270085839538799
v 0.0086713060736656 0.0192579943686724 -0.0217715762555599
vn 3.8335892709462804 4.4440823012371071 -1.8422810390236628
v 0.0095130875706673 0.0191457960754633 -0.0209318883717060
vn -1.4009905623803347 3.3494540509942516 -5.0019614020033094
v -0.0252647250890732 0.0192689113318920 -0.0224359892308712
vn -1.0155453587829246 3.4725050008647598 -5.0099621567308343
v -0.0246693454682827 0.0194787941873074 -0.0224359892308712
vn -4.3580997542655373 4.3851182854456372 -0.4118760079415353
v -0.0279477220028639 0.0189421754330397 -0.0199999995529652
vn -3.9192006006372604 4.3656819299068594 -1.8540469770682053
v -0.0276138558983803 0.0190561991184950 -0.0209318883717060
vn 4.3851200760912796 4.3581029323236411 -0.4118753974184965
v 0.0099421758204699 0.0189477205276489 -0.0199999995529652
vn -2.9225007360987787 4.0465996922535483 -3.6270612542773262
v -0.0267693139612675 0.0191883798688650 -0.0217715762555599
vn 0.4073852064849570 3.6071826985385576 -5.0001867860018727
v 0.0054341019131243 0.0197060424834490 -0.0224359892308712
vn 2.3667563414000790 4.3951886167100804 -3.6277243505651517
v 0.0080663021653891 0.0196286812424660 -0.0217715762555599
vn -0.5905937255612526 3.5833440620749166 -4.9953344110106883
v -0.0240573249757290 0.0196221824735403 -0.0224359892308712
vn 3.3802235712149131 4.7955461877247592 -1.8518266370837670
v 0.0089167654514313 0.0196117069572210 -0.0209318883717060
vn -0.0334572591933708 2.3645919198445413 -5.6984988264327168
v 0.0040000001899898 0.0191480498760939 -0.0227716378867626
vn 0.0732258384044094 2.3632932209942239 -5.7077157730082044
v -0.0219999998807907 0.0191480498760939 -0.0227716378867626
vn -0.1879624372454010 3.6138817566776753 -5.0254791478256893
v -0.0228132940828800 0.0197431258857250 -0.0224359892308712
vn -3.8698097953467592 4.9213014235110721 -0.3760656273837481
v -0.0276942104101181 0.0191407427191734 -0.0199999995529652
vn -3.8627541546930590 4.9316063126037220 -0.3438403316069350
v -0.0270800180733204 0.0196218173950911 -0.0199999995529652
vn 3.8854400362437449 4.9097214547563777 -0.3714285434521941
v 0.0095877368003130 0.0192282162606716 -0.0199999995529652
vn 3.8813252368929838 4.9112468983421573 -0.3826148242995747
v 0.0089812371879816 0.0197081845253706 -0.0199999995529652
vn -2.4414025717267243 4.3532949404512653 -3.6263370198919676
v -0.0261673275381327 0.0195732396095991 -0.0217715762555599
vn 1.8642067073312549 4.6110021933394449 -3.6471964314377554
v 0.0074554863385856 0.0199149176478386 -0.0217715762555599
vn -3.4692310791749472 4.7356929469297011 -1.8247624843850987
v -0.0270213205367327 0.0195374544709921 -0.0209318883717060
vn 0.1986247687908465 3.4872590084838651 -5.2190519693857524
v -0.0219999998807907 0.0197199359536171 -0.0223895180970430
vn -0.0677198552088483 3.4903453061684155 -5.2236707628660506
v 0.0040000001899898 0.0197199359536171 -0.0223895180970430
vn 2.7400802365819144 5.1901418618270778 -1.8419460311723890
v 0.0082699842751026 0.0200079903006554 -0.0209318883717060
vn -1.9261566242810815 4.6047103998806689 -3.6267011380447984
v -0.0255227815359831 0.0198872964829206 -0.0217715762555599
vn -1.4018190059532936 4.7915349502611022 -3.6287556164252450
v -0.0248568560928106 0.0201220940798521 -0.0217715762555599
vn 0.5518197289315608 4.9640798926014602 -3.6118436939221032
v 0.0054953857325017 0.0203733053058386 -0.0217715762555599
vn 1.2579196233131762 4.8230457014353938 -3.6130604224663290
v 0.0068222167901695 0.0201319493353367 -0.0217715762555599
vn -3.1684991640768367 5.3029891967707607 -0.4134739168837276
v -0.0266329590231180 0.0199719835072756 -0.0199999995529652
vn -2.8394391305281039 5.1306429845504598 -1.8730291026659363
v -0.0263780895620584 0.0199486613273621 -0.0209318883717060
vn 3.2495869898250249 5.2612919779798712 -0.4133116860257893
v 0.0086975973099470 0.0199326500296593 -0.0199999995529652
vn -0.8136572262847314 4.9208736243276521 -3.6199535978410524
v -0.0241769179701805 0.0202814936637878 -0.0217715762555599
vn 2.2432791816462152 5.4255838378344432 -1.8377994887384963
v 0.0076164337806404 0.0203142389655113 -0.0209318883717060
vn -0.0098374571689491 4.3678723681268528 -4.3538231092113202
v 0.0040000001899898 0.0201213210821152 -0.0221213195472956
vn 0.0728699768557945 4.3714715571354672 -4.3667067050528336
v -0.0219999998807907 0.0201213210821152 -0.0221213195472956
vn -0.2652972672672930 5.0047765076967705 -3.6241238244448248
v -0.0228347759693861 0.0204128511250019 -0.0217715762555599
vn -2.2894926208591202 5.4062681291420622 -1.8171363644955749
v -0.0256885904818773 0.0202846247702837 -0.0209318883717060
vn 1.4741892888688990 5.6590186154891882 -1.8878855331266331
v 0.0069406102411449 0.0205458886921406 -0.0209318883717060
vn 2.6454493156621623 5.6741884813302788 -0.3762223794164931
v 0.0083250813186169 0.0201063267886639 -0.0199999995529652
vn -2.5647998412175457 5.7086846203762853 -0.3929963003533942
v -0.0264414437115192 0.0200571641325951 -0.0199999995529652
vn 2.6467553474614949 5.6740164815253804 -0.3729238019875536
v 0.0076561975292861 0.0204181764274836 -0.0199999995529652
vn -2.5463792458802659 5.7251771628231287 -0.3289542382440266
v -0.0257253237068653 0.0203756708651781 -0.0199999995529652
vn 0.1806873868082501 5.2199525213535578 -3.4878632310662789
v -0.0219999998807907 0.0203753970563412 -0.0217410679906607
vn -0.0319529549724811 5.2241413882283849 -3.4906621536651601
v 0.0040000001899898 0.0203753970563412 -0.0217410679906607
vn -1.6341747112089933 5.6317367183387690 -1.8972818997847147
v -0.0249773375689983 0.0205354299396276 -0.0209318883717060
vn 0.6046104786211312 5.8236877982326147 -1.8838330469969615
v 0.0055347620509565 0.0208020377904177 -0.0209318883717060
vn -0.9901393784051240 5.7737405413930176 -1.8676421090143889
v -0.0242537576705217 0.0207051187753677 -0.0209318883717060
vn -1.8249541159768004 5.9081733894606376 -0.4288551290521794
v -0.0251004956662655 0.0206535756587982 -0.0199999995529652
vn 1.9687555809116146 5.8666842089505575 -0.4188178367238875
v 0.0072614676319063 0.0206022094935179 -0.0199999995529652
vn 0.0277426302836957 5.6979570149159837 -2.3448322874048944
v 0.0040000001899898 0.0207716394215822 -0.0211480502039194
vn 0.0527248385489673 5.7081252122531740 -2.3546749775958160
v -0.0219999998807907 0.0207716394215822 -0.0211480502039194
vn -0.2377300694141922 5.8858122071346699 -1.8159978355681166
v -0.0228485781699419 0.0208431668579578 -0.0209318883717060
vn -1.2179840430705535 6.1324473496598735 -0.4388696501508182
v -0.0250172819942236 0.0206697545945644 -0.0199999995529652
vn 0.7936801660704992 6.1476873990264602 -0.4725457184569091
v 0.0057775690220296 0.0209259055554867 -0.0199999995529652
vn 1.3333329566576926 6.1122556358131241 -0.4124453998910084
v 0.0069761588238180 0.0206644479185343 -0.0199999995529652
vn -1.1950260759439746 6.1460253403816640 -0.3716289351354239
v -0.0242731105536222 0.0208144504576921 -0.0199999995529652
vn -0.6856848866025756 6.1683837640424120 -0.4688561579837147
v -0.0236028358340263 0.0209447778761387 -0.0199999995529652
vn 0.0541822146531306 6.1711159256852097 -1.1759248936170654
v -0.0219999998807907 0.0208160430192947 -0.0209248159080744
vn 0.0252921400234668 6.1623574975701922 -1.2257603391022753
v 0.0040000001899898 0.0208160430192947 -0.0209248159080744
vn 0.0961905609097918 6.2188104324140951 -0.5824755224100001
v 0.0040000001899898 0.0209999997168779 -0.0199999995529652
vn 0.2603605664459691 6.2458355899142628 -0.4467303680578133
v 0.0055477372370660 0.0209354870021343 -0.0199999995529652
vn -0.1660179302525949 6.2441750633886075 -0.4758431819958855
v -0.0228526182472706 0.0209706258028746 -0.0199999995529652
vn -0.1069033104794370 6.2144264977148858 -0.6114075438275438
v -0.0219999998807907 0.0209999997168779 -0.0199999995529652
# 544 vertices, 0 vertices normals

f 1//1 2//2 3//3
f 4//4 1//1 3//3
f 5//5 4//4 3//3
f 6//6 5//5 3//3
f 7//7 8//8 3//3
f 2//2 7//7 3//3
f 8//8 6//6 3//3
f 1//1 9//9 2//2
f 9//9 7//7 2//2
f 10//10 6//6 8//8
f 7//7 11//11 8//8
f 11//11 12//12 8//8
f 12//12 10//10 8//8
f 9//9 13//13 7//7
f 13//13 14//14 7//7
f 14//14 15//15 7//7
f 15//15 16//16 7//7
f 16//16 17//17 7//7
f 17//17 11//11 7//7
f 1//1 18//18 9//9
f 18//18 19//19 9//9
f 19//19 13//13 9//9
f 20//20 21//21 19//19
f 18//18 20//20 19//19
f 21//21 13//13 19//19
f 21//21 22//22 13//13
f 22//22 14//14 13//13
f 23//23 5//5 6//6
f 10//10 23//23 6//6
f 24//24 5//5 23//23
f 25//25 24//24 23//23
f 10//10 25//25 23//23
f 26//26 25//25 10//10
f 12//12 27//27 10//10
f 27//27 26//26 10//10
f 28//28 29//29 18//18
f 1//1 28//28 18//18
f 29//29 20//20 18//18
f 28//28 1//1 4//4
f 30//30 28//28 4//4
f 5//5 30//30 4//4
f 20//20 31//31 21//21
f 31//31 22//22 21//21
f 24//24 32//32 5//5
f 32//32 33//33 5//5
f 33//33 30//30 5//5
f 34//34 28//28 30//30
f 35//35 34//34 30//30
f 33//33 35//35 30//30
f 34//34 29//29 28//28
f 29//29 36//36 20//20
f 36//36 37//37 20//20
f 37//37 31//31 20//20
f 37//37 38//38 31//31
f 38//38 22//22 31//31
f 39//39 24//24 25//25
f 26//26 39//39 25//25
f 40//40 41//41 38//38
f 37//37 40//40 38//38
f 41//41 22//22 38//38
f 41//41 42//42 22//22
f 42//42 43//43 22//22
f 43//43 14//14 22//22
f 44//44 24//24 39//39
f 45//45 44//44 39//39
f 26//26 45//45 39//39
f 46//46 45//45 26//26
f 47//47 46//46 26//26
f 27//27 47//47 26//26
f 48//48 32//32 24//24
f 44//44 48//48 24//24
f 49//49 40//40 37//37
f 36//36 49//49 37//37
f 46//46 50//50 45//45
f 50//50 44//44 45//45
f 51//51 52//52 29//29
f 34//34 51//51 29//29
f 52//52 36//36 29//29
f 40//40 42//42 41//41
f 51//51 34//34 35//35
f 53//53 51//51 35//35
f 33//33 53//53 35//35
f 54//54 53//53 33//33
f 55//55 54//54 33//33
f 32//32 55//55 33//33
f 50//50 56//56 44//44
f 56//56 48//48 44//44
f 49//49 57//57 40//40
f 57//57 58//58 40//40
f 58//58 42//42 40//40
f 52//52 59//59 36//36
f 59//59 49//49 36//36
f 48//48 55//55 32//32
f 60//60 57//57 49//49
f 59//59 60//60 49//49
f 61//61 51//51 53//53
f 62//62 61//61 53//53
f 54//54 62//62 53//53
f 61//61 52//52 51//51
f 63//63 50//50 46//46
f 47//47 63//63 46//46
f 58//58 64//64 42//42
f 64//64 43//43 42//42
f 65//65 56//56 50//50
f 66//66 65//65 50//50
f 63//63 66//66 50//50
f 67//67 43//43 64//64
f 68//68 67//67 64//64
f 58//58 68//68 64//64
f 67//67 69//69 43//43
f 69//69 14//14 43//43
f 57//57 70//70 58//58
f 70//70 68//68 58//58
f 71//71 66//66 63//63
f 47//47 71//71 63//63
f 72//72 71//71 47//47
f 27//27 72//72 47//47
f 56//56 73//73 48//48
f 73//73 55//55 48//48
f 60//60 74//74 57//57
f 74//74 70//70 57//57
f 75//75 76//76 52//52
f 61//61 75//75 52//52
f 76//76 59//59 52//52
f 75//75 61//61 62//62
f 77//77 75//75 62//62
f 54//54 77//77 62//62
f 78//78 66//66 71//71
f 79//79 78//78 71//71
f 72//72 79//79 71//71
f 80//80 77//77 54//54
f 81//81 80//80 54//54
f 55//55 81//81 54//54
f 82//82 73//73 56//56
f 65//65 82//82 56//56
f 76//76 83//83 59//59
f 83//83 60//60 59//59
f 68//68 84//84 67//67
f 84//84 69//69 67//67
f 85//85 65//65 66//66
f 78//78 85//85 66//66
f 74//74 86//86 70//70
f 87//87 68//68 70//70
f 86//86 87//87 70//70
f 88//88 84//84 68//68
f 87//87 88//88 68//68
f 89//89 81//81 55//55
f 73//73 89//89 55//55
f 90//90 74//74 60//60
f 83//83 90//90 60//60
f 90//90 86//86 74//74
f 91//91 82//82 65//65
f 85//85 91//91 65//65
f 92//92 78//78 79//79
f 72//72 92//92 79//79
f 93//93 88//88 87//87
f 94//94 93//93 87//87
f 86//86 94//94 87//87
f 95//95 75//75 77//77
f 96//96 95//95 77//77
f 80//80 96//96 77//77
f 95//95 76//76 75//75
f 92//92 97//97 78//78
f 97//97 98//98 78//78
f 98//98 85//85 78//78
f 88//88 99//99 84//84
f 99//99 69//69 84//84
f 100//100 99//99 88//88
f 93//93 100//100 88//88
f 82//82 89//89 73//73
f 90//90 101//101 86//86
f 101//101 94//94 86//86
f 102//102 97//97 92//92
f 72//72 102//102 92//92
f 103//103 104//104 72//72
f 104//104 102//102 72//72
f 27//27 103//103 72//72
f 105//105 69//69 99//99
f 100//100 105//105 99//99
f 105//105 106//106 69//69
f 106//106 107//107 69//69
f 107//107 14//14 69//69
f 108//108 109//109 76//76
f 95//95 108//108 76//76
f 109//109 83//83 76//76
f 110//110 95//95 96//96
f 111//111 110//110 96//96
f 80//80 111//111 96//96
f 110//110 108//108 95//95
f 112//112 111//111 80//80
f 113//113 112//112 80//80
f 81//81 113//113 80//80
f 98//98 114//114 85//85
f 114//114 91//91 85//85
f 109//109 115//115 83//83
f 115//115 116//116 83//83
f 116//116 90//90 83//83
f 117//117 100//100 93//93
f 118//118 117//117 93//93
f 94//94 118//118 93//93
f 119//119 89//89 82//82
f 91//91 119//119 82//82
f 104//104 120//120 102//102
f 120//120 97//97 102//102
f 121//121 113//113 81//81
f 122//122 121//121 81//81
f 89//89 122//122 81//81
f 101//101 118//118 94//94
f 120//120 123//123 97//97
f 123//123 98//98 97//97
f 100//100 106//106 105//105
f 117//117 124//124 100//100
f 124//124 106//106 100//100
f 116//116 125//125 90//90
f 125//125 101//101 90//90
f 123//123 126//126 98//98
f 126//126 114//114 98//98
f 114//114 119//119 91//91
f 127//127 122//122 89//89
f 119//119 127//127 89//89
f 128//128 117//117 118//118
f 101//101 129//129 118//118
f 129//129 128//128 118//118
f 128//128 130//130 117//117
f 130//130 124//124 117//117
f 131//131 120//120 104//104
f 103//103 131//131 104//104
f 131//131 132//132 120//120
f 132//132 133//133 120//120
f 133//133 123//123 120//120
f 112//112 134//134 111//111
f 134//134 135//135 111//111
f 135//135 136//136 111//111
f 136//136 110//110 111//111
f 136//136 137//137 110//110
f 137//137 108//108 110//110
f 137//137 138//138 108//108
f 138//138 109//109 108//108
f 138//138 139//139 109//109
f 139//139 115//115 109//109
f 124//124 140//140 106//106
f 140//140 107//107 106//106
f 141//141 129//129 101//101
f 125//125 142//142 101//101
f 142//142 143//143 101//101
f 143//143 141//141 101//101
f 144//144 134//134 112//112
f 113//113 144//144 112//112
f 130//130 145//145 124//124
f 145//145 140//140 124//124
f 121//121 144//144 113//113
f 126//126 146//146 114//114
f 146//146 119//119 114//114
f 139//139 116//116 115//115
f 139//139 125//125 116//116
f 129//129 147//147 128//128
f 147//147 130//130 128//128
f 122//122 144//144 121//121
f 133//133 148//148 123//123
f 148//148 126//126 123//123
f 145//145 149//149 140//140
f 149//149 107//107 140//140
f 149//149 150//150 107//107
f 150//150 14//14 107//107
f 146//146 151//151 119//119
f 151//151 127//127 119//119
f 147//147 152//152 130//130
f 152//152 145//145 130//130
f 127//127 144//144 122//122
f 153//153 132//132 131//131
f 103//103 153//153 131//131
f 154//154 153//153 103//103
f 27//27 154//154 103//103
f 155//155 142//142 125//125
f 139//139 155//155 125//125
f 151//151 144//144 127//127
f 156//156 132//132 153//153
f 157//157 156//156 153//153
f 154//154 157//157 153//153
f 158//158 133//133 132//132
f 156//156 158//158 132//132
f 148//148 146//146 126//126
f 145//145 159//159 149//149
f 159//159 150//150 149//149
f 155//155 143//143 142//142
f 129//129 160//160 147//147
f 160//160 161//161 147//147
f 161//161 152//152 147//147
f 162//162 159//159 145//145
f 152//152 162//162 145//145
f 141//141 163//163 129//129
f 163//163 160//160 129//129
f 155//155 141//141 143//143
f 164//164 148//148 133//133
f 158//158 164//164 133//133
f 165//165 162//162 152//152
f 161//161 165//165 152//152
f 166//166 144//144 151//151
f 146//146 166//166 151//151
f 167//167 168//168 146//146
f 168//168 166//166 146//146
f 169//169 167//167 146//146
f 148//148 169//169 146//146
f 164//164 169//169 148//148
f 170//170 165//165 161//161
f 160//160 170//170 161//161
f 171//171 156//156 157//157
f 154//154 171//171 157//157
f 172//172 158//158 156//156
f 173//173 172//172 156//156
f 171//171 173//173 156//156
f 162//162 174//174 159//159
f 174//174 150//150 159//159
f 155//155 163//163 141//141
f 165//165 175//175 162//162
f 175//175 174//174 162//162
f 176//176 164//164 158//158
f 172//172 176//176 158//158
f 170//170 177//177 165//165
f 177//177 175//175 165//165
f 178//178 179//179 160//160
f 163//163 178//178 160//160
f 179//179 170//170 160//160
f 168//168 144//144 166//166
f 176//176 169//169 164//164
f 180//180 150//150 174//174
f 175//175 180//180 174//174
f 180//180 181//181 150//150
f 181//181 14//14 150//150
f 167//167 144//144 168//168
f 182//182 173//173 171//171
f 154//154 182//182 171//171
f 183//183 182//182 154//154
f 184//184 183//183 154//154
f 27//27 184//184 154//154
f 185//185 173//173 182//182
f 186//186 185//185 182//182
f 183//183 186//186 182//182
f 187//187 172//172 173//173
f 185//185 187//187 173//173
f 175//175 188//188 180//180
f 188//188 181//181 180//180
f 189//189 188//188 175//175
f 177//177 189//189 175//175
f 190//190 167//167 169//169
f 191//191 190//190 169//169
f 176//176 191//191 169//169
f 155//155 178//178 163//163
f 192//192 176//176 172//172
f 187//187 192//192 172//172
f 193//193 189//189 177//177
f 170//170 193//193 177//177
f 192//192 191//191 176//176
f 194//194 193//193 170//170
f 179//179 194//194 170//170
f 155//155 195//195 178//178
f 195//195 179//179 178//178
f 190//190 144//144 167//167
f 196//196 197//197 179//179
f 195//195 196//196 179//179
f 197//197 194//194 179//179
f 198//198 185//185 186//186
f 183//183 198//198 186//186
f 199//199 187//187 185//185
f 200//200 199//199 185//185
f 198//198 200//200 185//185
f 201//201 192//192 187//187
f 199//199 201//201 187//187
f 155//155 196//196 195//195
f 202//202 144//144 190//190
f 191//191 202//202 190//190
f 203//203 191//191 192//192
f 201//201 203//203 192//192
f 204//204 202//202 191//191
f 203//203 204//204 191//191
f 189//189 205//205 188//188
f 205//205 181//181 188//188
f 205//205 206//206 181//181
f 206//206 207//207 181//181
f 207//207 14//14 181//181
f 155//155 208//208 196//196
f 208//208 197//197 196//196
f 204//204 144//144 202//202
f 209//209 200//200 198//198
f 183//183 209//209 198//198
f 210//210 209//209 183//183
f 184//184 210//210 183//183
f 189//189 211//211 205//205
f 211//211 206//206 205//205
f 212//212 213//213 189//189
f 213//213 211//211 189//189
f 193//193 212//212 189//189
f 214//214 215//215 193//193
f 215//215 212//212 193//193
f 194//194 214//214 193//193
f 216//216 217//217 194//194
f 217//217 214//214 194//194
f 197//197 216//216 194//194
f 218//218 219//219 197//197
f 208//208 218//218 197//197
f 219//219 216//216 197//197
f 155//155 218//218 208//208
f 220//220 144//144 204//204
f 203//203 220//220 204//204
f 221//221 200//200 209//209
f 222//222 221//221 209//209
f 210//210 222//222 209//209
f 223//223 199//199 200//200
f 221//221 223//223 200//200
f 224//224 201//201 199//199
f 225//225 224//224 199//199
f 223//223 225//225 199//199
f 226//226 203//203 201//201
f 227//227 226//226 201//201
f 224//224 227//227 201//201
f 228//228 220//220 203//203
f 226//226 228//228 203//203
f 229//229 144//144 220//220
f 228//228 229//229 220//220
f 230//230 231//231 218//218
f 155//155 230//230 218//218
f 231//231 219//219 218//218
f 231//231 232//232 219//219
f 232//232 216//216 219//219
f 232//232 233//233 216//216
f 233//233 217//217 216//216
f 233//233 234//234 217//217
f 234//234 214//214 217//217
f 234//234 235//235 214//214
f 235//235 215//215 214//214
f 235//235 236//236 215//215
f 236//236 212//212 215//215
f 236//236 237//237 212//212
f 237//237 213//213 212//212
f 237//237 238//238 213//213
f 238//238 211//211 213//213
f 210//210 239//239 222//222
f 238//238 240//240 211//211
f 241//241 206//206 211//211
f 240//240 241//241 211//211
f 242//242 239//239 210//210
f 184//184 243//243 210//210
f 243//243 244//244 210//210
f 244//244 242//242 210//210
f 241//241 245//245 206//206
f 245//245 246//246 206//206
f 246//246 207//207 206//206
f 247//247 144//144 229//229
f 248//248 247//247 229//229
f 228//228 249//249 229//229
f 249//249 248//248 229//229
f 226//226 250//250 228//228
f 250//250 249//249 228//228
f 227//227 251//251 226//226
f 251//251 250//250 226//226
f 224//224 252//252 227//227
f 252//252 251//251 227//227
f 225//225 253//253 224//224
f 253//253 252//252 224//224
f 223//223 254//254 225//225
f 254//254 253//253 225//225
f 221//221 255//255 223//223
f 255//255 254//254 223//223
f 222//222 239//239 221//221
f 239//239 255//255 221//221
f 256//256 137//137 136//136
f 257//257 256//256 136//136
f 135//135 257//257 136//136
f 258//258 137//137 256//256
f 259//259 258//258 256//256
f 257//257 259//259 256//256
f 260//260 257//257 135//135
f 134//134 260//260 135//135
f 258//258 138//138 137//137
f 260//260 259//259 257//257
f 261//261 138//138 258//258
f 259//259 261//261 258//258
f 262//262 260//260 134//134
f 144//144 262//262 134//134
f 261//261 139//139 138//138
f 262//262 259//259 260//260
f 263//263 139//139 261//261
f 259//259 263//263 261//261
f 264//264 262//262 144//144
f 247//247 264//264 144//144
f 265//265 266//266 139//139
f 266//266 267//267 139//139
f 267//267 155//155 139//139
f 263//263 265//265 139//139
f 264//264 259//259 262//262
f 268//268 269//269 259//259
f 269//269 263//263 259//259
f 264//264 270//270 259//259
f 270//270 271//271 259//259
f 271//271 268//268 259//259
f 269//269 265//265 263//263
f 248//248 272//272 247//247
f 270//270 264//264 247//247
f 272//272 270//270 247//247
f 273//273 266//266 265//265
f 269//269 273//273 265//265
f 268//268 273//273 269//269
f 274//274 275//275 272//272
f 248//248 274//274 272//272
f 271//271 270//270 272//272
f 275//275 271//271 272//272
f 275//275 266//266 273//273
f 268//268 275//275 273//273
f 271//271 275//275 268//268
f 274//274 266//266 275//275
f 276//276 27//27 277//277
f 27//27 12//12 277//277
f 12//12 278//278 277//277
f 278//278 279//279 277//277
f 279//279 276//276 277//277
f 280//280 16//16 281//281
f 16//16 15//15 281//281
f 15//15 282//282 281//281
f 282//282 283//283 281//281
f 283//283 280//280 281//281
f 11//11 278//278 12//12
f 14//14 282//282 15//15
f 284//284 184//184 276//276
f 184//184 27//27 276//276
f 279//279 284//284 276//276
f 285//285 286//286 280//280
f 286//286 16//16 280//280
f 283//283 285//285 280//280
f 286//286 287//287 16//16
f 287//287 288//288 16//16
f 288//288 17//17 16//16
f 11//11 289//289 278//278
f 289//289 279//279 278//278
f 14//14 290//290 282//282
f 290//290 283//283 282//282
f 17//17 289//289 11//11
f 207//207 290//290 14//14
f 291//291 243//243 284//284
f 243//243 184//184 284//284
f 279//279 291//291 284//284
f 292//292 293//293 285//285
f 293//293 286//286 285//285
f 283//283 292//292 285//285
f 293//293 287//287 286//286
f 17//17 294//294 289//289
f 294//294 279//279 289//289
f 207//207 295//295 290//290
f 295//295 283//283 290//290
f 288//288 294//294 17//17
f 246//246 295//295 207//207
f 296//296 244//244 291//291
f 244//244 243//243 291//291
f 279//279 296//296 291//291
f 297//297 298//298 292//292
f 298//298 293//293 292//292
f 283//283 297//297 292//292
f 298//298 287//287 293//293
f 288//288 299//299 294//294
f 299//299 279//279 294//294
f 246//246 300//300 295//295
f 300//300 283//283 295//295
f 287//287 299//299 288//288
f 245//245 300//300 246//246
f 301//301 302//302 296//296
f 302//302 244//244 296//296
f 279//279 301//301 296//296
f 303//303 304//304 297//297
f 304//304 298//298 297//297
f 283//283 303//303 297//297
f 302//302 242//242 244//244
f 305//305 287//287 298//298
f 304//304 305//305 298//298
f 287//287 306//306 299//299
f 306//306 279//279 299//299
f 245//245 307//307 300//300
f 307//307 283//283 300//300
f 305//305 306//306 287//287
f 308//308 307//307 245//245
f 309//309 301//301 279//279
f 310//310 311//311 279//279
f 311//311 312//312 279//279
f 312//312 309//309 279//279
f 306//306 313//313 279//279
f 313//313 314//314 279//279
f 314//314 310//310 279//279
f 315//315 303//303 283//283
f 316//316 317//317 283//283
f 317//317 318//318 283//283
f 318//318 315//315 283//283
f 307//307 319//319 283//283
f 319//319 320//320 283//283
f 320//320 316//316 283//283
f 241//241 308//308 245//245
f 309//309 321//321 301//301
f 321//321 302//302 301//301
f 315//315 322//322 303//303
f 322//322 304//304 303//303
f 321//321 242//242 302//302
f 323//323 305//305 304//304
f 322//322 323//323 304//304
f 305//305 313//313 306//306
f 308//308 319//319 307//307
f 323//323 313//313 305//305
f 241//241 324//324 308//308
f 324//324 319//319 308//308
f 312//312 325//325 309//309
f 325//325 321//321 309//309
f 318//318 326//326 315//315
f 326//326 322//322 315//315
f 327//327 242//242 321//321
f 325//325 327//327 321//321
f 328//328 323//323 322//322
f 326//326 328//328 322//322
f 323//323 314//314 313//313
f 324//324 320//320 319//319
f 328//328 329//329 323//323
f 329//329 314//314 323//323
f 241//241 330//330 324//324
f 330//330 320//320 324//324
f 311//311 331//331 312//312
f 331//331 325//325 312//312
f 317//317 332//332 318//318
f 332//332 326//326 318//318
f 331//331 333//333 325//325
f 333//333 334//334 325//325
f 334//334 327//327 325//325
f 335//335 328//328 326//326
f 332//332 335//335 326//326
f 329//329 310//310 314//314
f 330//330 316//316 320//320
f 328//328 336//336 329//329
f 336//336 310//310 329//329
f 337//337 338//338 330//330
f 339//339 337//337 330//330
f 340//340 339//339 330//330
f 241//241 341//341 330//330
f 341//341 342//342 330//330
f 342//342 343//343 330//330
f 343//343 344//344 330//330
f 344//344 340//340 330//330
f 338//338 316//316 330//330
f 310//310 336//336 311//311
f 336//336 331//331 311//311
f 316//316 338//338 317//317
f 338//338 332//332 317//317
f 345//345 346//346 331//331
f 328//328 345//345 331//331
f 346//346 347//347 331//331
f 347//347 348//348 331//331
f 348//348 333//333 331//331
f 336//336 328//328 331//331
f 338//338 335//335 332//332
f 337//337 335//335 338//338
f 349//349 155//155 267//267
f 350//350 349//349 267//267
f 266//266 350//350 267//267
f 351//351 155//155 349//349
f 352//352 351//351 349//349
f 350//350 352//352 349//349
f 353//353 350//350 266//266
f 274//274 353//353 266//266
f 351//351 230//230 155//155
f 353//353 352//352 350//350
f 354//354 230//230 351//351
f 352//352 354//354 351//351
f 248//248 355//355 274//274
f 356//356 353//353 274//274
f 355//355 356//356 274//274
f 357//357 231//231 230//230
f 354//354 357//357 230//230
f 356//356 352//352 353//353
f 358//358 357//357 354//354
f 352//352 358//358 354//354
f 359//359 360//360 355//355
f 360//360 361//361 355//355
f 361//361 362//362 355//355
f 362//362 363//363 355//355
f 363//363 364//364 355//355
f 364//364 365//365 355//355
f 365//365 366//366 355//355
f 367//367 368//368 355//355
f 248//248 369//369 355//355
f 369//369 367//367 355//355
f 368//368 370//370 355//355
f 370//370 371//371 355//355
f 371//371 359//359 355//355
f 372//372 356//356 355//355
f 366//366 372//372 355//355
f 373//373 374//374 357//357
f 374//374 231//231 357//357
f 358//358 373//373 357//357
f 372//372 352//352 356//356
f 375//375 376//376 352//352
f 376//376 358//358 352//352
f 372//372 377//377 352//352
f 377//377 378//378 352//352
f 378//378 375//375 352//352
f 376//376 373//373 358//358
f 365//365 379//379 366//366
f 379//379 380//380 366//366
f 377//377 372//372 366//366
f 380//380 377//377 366//366
f 381//381 382//382 373//373
f 383//383 384//384 373//373
f 382//382 385//385 373//373
f 385//385 374//374 373//373
f 384//384 386//386 373//373
f 386//386 387//387 373//373
f 387//387 381//381 373//373
f 388//388 389//389 373//373
f 390//390 391//391 373//373
f 391//391 392//392 373//373
f 392//392 388//388 373//373
f 389//389 393//393 373//373
f 393//393 394//394 373//373
f 394//394 383//383 373//373
f 376//376 390//390 373//373
f 375//375 390//390 376//376
f 379//379 395//395 380//380
f 395//395 396//396 380//380
f 378//378 377//377 380//380
f 396//396 378//378 380//380
f 396//396 391//391 390//390
f 375//375 396//396 390//390
f 378//378 396//396 375//375
f 395//395 391//391 396//396
f 374//374 232//232 231//231
f 374//374 397//397 232//232
f 397//397 233//233 232//232
f 397//397 398//398 233//233
f 398//398 234//234 233//233
f 398//398 235//235 234//234
f 398//398 399//399 235//235
f 399//399 236//236 235//235
f 399//399 237//237 236//236
f 399//399 400//400 237//237
f 400//400 238//238 237//237
f 400//400 401//401 238//238
f 401//401 240//240 238//238
f 249//249 402//402 248//248
f 402//402 369//369 248//248
f 250//250 402//402 249//249
f 251//251 403//403 250//250
f 403//403 402//402 250//250
f 252//252 403//403 251//251
f 253//253 404//404 252//252
f 404//404 403//403 252//252
f 254//254 404//404 253//253
f 255//255 405//405 254//254
f 405//405 404//404 254//254
f 239//239 405//405 255//255
f 406//406 405//405 239//239
f 242//242 406//406 239//239
f 401//401 241//241 240//240
f 401//401 341//341 241//241
f 327//327 406//406 242//242
f 385//385 397//397 374//374
f 385//385 407//407 397//397
f 407//407 408//408 397//397
f 408//408 398//398 397//397
f 408//408 409//409 398//398
f 409//409 399//399 398//398
f 409//409 410//410 399//399
f 410//410 400//400 399//399
f 410//410 411//411 400//400
f 411//411 401//401 400//400
f 411//411 341//341 401//401
f 382//382 407//407 385//385
f 402//402 367//367 369//369
f 412//412 367//367 402//402
f 403//403 412//412 402//402
f 404//404 413//413 403//403
f 413//413 412//412 403//403
f 405//405 414//414 404//404
f 414//414 413//413 404//404
f 406//406 415//415 405//405
f 415//415 416//416 405//405
f 416//416 414//414 405//405
f 327//327 415//415 406//406
f 410//410 417//417 411//411
f 417//417 341//341 411//411
f 417//417 342//342 341//341
f 381//381 407//407 382//382
f 412//412 368//368 367//367
f 418//418 416//416 415//415
f 327//327 418//418 415//415
f 334//334 418//418 327//327
f 381//381 419//419 407//407
f 419//419 420//420 407//407
f 420//420 408//408 407//407
f 420//420 421//421 408//408
f 421//421 409//409 408//408
f 387//387 419//419 381//381
f 412//412 370//370 368//368
f 421//421 422//422 409//409
f 422//422 410//410 409//409
f 422//422 423//423 410//410
f 423//423 417//417 410//410
f 423//423 342//342 417//417
f 424//424 370//370 412//412
f 413//413 424//424 412//412
f 386//386 425//425 387//387
f 425//425 419//419 387//387
f 424//424 371//371 370//370
f 426//426 427//427 413//413
f 414//414 426//426 413//413
f 427//427 424//424 413//413
f 419//419 428//428 420//420
f 428//428 429//429 420//420
f 429//429 421//421 420//420
f 416//416 426//426 414//414
f 429//429 430//430 421//421
f 430//430 422//422 421//421
f 431//431 359//359 371//371
f 424//424 431//431 371//371
f 425//425 432//432 419//419
f 432//432 428//428 419//419
f 418//418 433//433 416//416
f 434//434 426//426 416//416
f 433//433 434//434 416//416
f 334//334 433//433 418//418
f 430//430 435//435 422//422
f 435//435 423//423 422//422
f 435//435 342//342 423//423
f 430//430 436//436 435//435
f 436//436 342//342 435//435
f 436//436 437//437 342//342
f 437//437 343//343 342//342
f 384//384 425//425 386//386
f 438//438 434//434 433//433
f 334//334 438//438 433//433
f 439//439 438//438 334//334
f 333//333 439//439 334//334
f 432//432 440//440 428//428
f 440//440 429//429 428//428
f 383//383 425//425 384//384
f 441//441 431//431 424//424
f 427//427 441//441 424//424
f 434//434 442//442 426//426
f 442//442 427//427 426//426
f 440//440 443//443 429//429
f 443//443 430//430 429//429
f 438//438 444//444 434//434
f 444//444 442//442 434//434
f 431//431 445//445 359//359
f 445//445 360//360 359//359
f 439//439 444//444 438//438
f 443//443 437//437 430//430
f 437//437 436//436 430//430
f 442//442 441//441 427//427
f 446//446 440//440 432//432
f 447//447 446//446 432//432
f 425//425 447//447 432//432
f 383//383 448//448 425//425
f 449//449 447//447 425//425
f 448//448 449//449 425//425
f 394//394 448//448 383//383
f 450//450 441//441 442//442
f 444//444 450//450 442//442
f 451//451 443//443 440//440
f 446//446 451//451 440//440
f 445//445 361//361 360//360
f 452//452 445//445 431//431
f 453//453 452//452 431//431
f 441//441 453//453 431//431
f 439//439 454//454 444//444
f 455//455 450//450 444//444
f 454//454 455//455 444//444
f 450//450 453//453 441//441
f 445//445 362//362 361//361
f 333//333 454//454 439//439
f 456//456 446//446 447//447
f 449//449 456//456 447//447
f 457//457 437//437 443//443
f 451//451 457//457 443//443
f 457//457 343//343 437//437
f 393//393 458//458 394//394
f 458//458 448//448 394//394
f 459//459 363//363 362//362
f 445//445 459//459 362//362
f 460//460 343//343 457//457
f 460//460 344//344 343//343
f 451//451 460//460 457//457
f 389//389 461//461 393//393
f 461//461 458//458 393//393
f 462//462 453//453 450//450
f 455//455 462//462 450//450
f 463//463 449//449 448//448
f 458//458 464//464 448//448
f 464//464 463//463 448//448
f 465//465 455//455 454//454
f 333//333 465//465 454//454
f 348//348 465//465 333//333
f 466//466 451//451 446//446
f 456//456 466//466 446//446
f 388//388 461//461 389//389
f 462//462 452//452 453//453
f 467//467 364//364 363//363
f 459//459 467//467 363//363
f 467//467 365//365 364//364
f 468//468 456//456 449//449
f 463//463 468//468 449//449
f 392//392 469//469 388//388
f 469//469 461//461 388//388
f 470//470 462//462 455//455
f 465//465 470//470 455//455
f 391//391 469//469 392//392
f 471//471 459//459 445//445
f 472//472 471//471 445//445
f 452//452 472//472 445//445
f 473//473 470//470 465//465
f 348//348 473//473 465//465
f 474//474 379//379 365//365
f 467//467 474//474 365//365
f 475//475 395//395 379//379
f 474//474 475//475 379//379
f 475//475 476//476 395//395
f 476//476 391//391 395//395
f 476//476 469//469 391//391
f 477//477 460//460 451//451
f 466//466 477//477 451//451
f 477//477 344//344 460//460
f 470//470 478//478 462//462
f 478//478 452//452 462//462
f 478//478 472//472 452//452
f 461//461 479//479 458//458
f 479//479 480//480 458//458
f 480//480 464//464 458//458
f 464//464 481//481 463//463
f 481//481 468//468 463//463
f 482//482 466//466 456//456
f 468//468 482//482 456//456
f 483//483 484//484 459//459
f 484//484 467//467 459//459
f 471//471 483//483 459//459
f 473//473 485//485 470//470
f 485//485 486//486 470//470
f 486//486 478//478 470//470
f 348//348 485//485 473//473
f 487//487 477//477 466//466
f 482//482 487//487 466//466
f 478//478 488//488 472//472
f 488//488 471//471 472//472
f 469//469 489//489 461//461
f 489//489 479//479 461//461
f 487//487 344//344 477//477
f 480//480 490//490 464//464
f 490//490 481//481 464//464
f 486//486 488//488 478//478
f 491//491 474//474 467//467
f 484//484 491//491 467//467
f 481//481 492//492 468//468
f 492//492 482//482 468//468
f 476//476 493//493 469//469
f 493//493 489//489 469//469
f 474//474 494//494 475//475
f 494//494 493//493 475//475
f 493//493 476//476 475//475
f 495//495 494//494 474//474
f 491//491 495//495 474//474
f 496//496 486//486 485//485
f 348//348 496//496 485//485
f 347//347 497//497 348//348
f 497//497 496//496 348//348
f 498//498 344//344 487//487
f 498//498 499//499 344//344
f 499//499 340//340 344//344
f 482//482 498//498 487//487
f 500//500 483//483 471//471
f 488//488 500//500 471//471
f 501//501 490//490 480//480
f 479//479 501//501 480//480
f 496//496 502//502 486//486
f 502//502 488//488 486//486
f 497//497 502//502 496//496
f 492//492 499//499 482//482
f 499//499 498//498 482//482
f 495//495 503//503 494//494
f 503//503 504//504 494//494
f 504//504 493//493 494//494
f 504//504 489//489 493//493
f 502//502 500//500 488//488
f 490//490 505//505 481//481
f 505//505 492//492 481//481
f 506//506 484//484 483//483
f 500//500 506//506 483//483
f 506//506 507//507 484//484
f 507//507 491//491 484//484
f 489//489 508//508 479//479
f 508//508 509//509 479//479
f 509//509 501//501 479//479
f 497//497 510//510 502//502
f 510//510 511//511 502//502
f 511//511 500//500 502//502
f 511//511 506//506 500//500
f 505//505 512//512 492//492
f 512//512 499//499 492//492
f 347//347 510//510 497//497
f 513//513 495//495 491//491
f 507//507 513//513 491//491
f 514//514 505//505 490//490
f 501//501 514//514 490//490
f 504//504 515//515 489//489
f 515//515 508//508 489//489
f 512//512 340//340 499//499
f 495//495 516//516 503//503
f 516//516 515//515 503//503
f 515//515 504//504 503//503
f 517//517 516//516 495//495
f 513//513 517//517 495//495
f 518//518 507//507 506//506
f 511//511 518//518 506//506
f 509//509 519//519 501//501
f 519//519 514//514 501//501
f 505//505 520//520 512//512
f 520//520 340//340 512//512
f 520//520 339//339 340//340
f 510//510 521//521 511//511
f 521//521 518//518 511//511
f 347//347 521//521 510//510
f 346//346 521//521 347//347
f 522//522 520//520 505//505
f 514//514 522//522 505//505
f 523//523 518//518 521//521
f 346//346 523//523 521//521
f 522//522 339//339 520//520
f 517//517 524//524 516//516
f 524//524 525//525 516//516
f 525//525 515//515 516//516
f 525//525 508//508 515//515
f 518//518 526//526 507//507
f 526//526 513//513 507//507
f 527//527 519//519 509//509
f 508//508 527//527 509//509
f 528//528 517//517 513//513
f 526//526 528//528 513//513
f 523//523 529//529 518//518
f 529//529 526//526 518//518
f 519//519 530//530 514//514
f 530//530 522//522 514//514
f 531//531 527//527 508//508
f 525//525 531//531 508//508
f 517//517 532//532 524//524
f 532//532 531//531 524//524
f 531//531 525//525 524//524
f 346//346 529//529 523//523
f 533//533 532//532 517//517
f 528//528 533//533 517//517
f 530//530 339//339 522//522
f 529//529 534//534 526//526
f 534//534 528//528 526//526
f 527//527 535//535 519//519
f 535//535 536//536 519//519
f 536//536 530//530 519//519
f 536//536 339//339 530//530
f 536//536 337//337 339//339
f 346//346 534//534 529//529
f 345//345 534//534 346//346
f 535//535 337//337 536//536
f 537//537 528//528 534//534
f 345//345 537//537 534//534
f 537//537 538//538 528//528
f 538//538 533//533 528//528
f 533//533 539//539 532//532
f 539//539 540//540 532//532
f 540//540 531//531 532//532
f 540//540 527//527 531//531
f 540//540 541//541 527//527
f 541//541 542//542 527//527
f 542//542 535//535 527//527
f 345//345 538//538 537//537
f 533//533 543//543 539//539
f 543//543 544//544 539//539
f 544//544 541//541 539//539
f 541//541 540//540 539//539
f 538//538 543//543 533//533
f 542//542 337//337 535//535
f 542//542 335//335 337//337
f 541//541 335//335 542//542
f 345//345 543//543 538//538
f 328//328 543//543 345//345
f 328//328 544//544 543//543
f 328//328 541//541 544//544
f 328//328 335//335 541//541
# 1084 faces, 0 coords texture

# End of File
