####
#
# OBJ File Generated by Meshlab
#
####
# Object rtool_Right_Pad_Link.obj
#
# Vertices: 36
# Faces: 68
#
####
vn 3.0512503474140793 3.1351868027247858 -0.1417164037512754
v 0.0015000054845586 0.0222500003874302 -0.0032084973063320
vn -3.0512503474140793 3.1351868027247862 -0.1417164037512754
v -0.0014999945415184 0.0222500003874302 -0.0032084973063320
vn 3.0512503474140793 3.1351868027247862 0.1417164037512754
v 0.0015000054845586 0.0222500003874302 0.0032084973063320
vn -3.0512503474140789 3.1351868027247858 0.1417164037512754
v -0.0014999945415184 0.0222500003874302 0.0032084973063320
vn 1.5707963267948963 -1.5707963267948966 -1.5707963267948966
v 0.0015000054845586 -0.0172500014305115 -0.0115000000223517
vn 3.0002486186208981 0.2212841624567992 -3.1259279674344063
v 0.0015000054845586 0.0172499995678663 -0.0115000000223517
vn 2.9609091826153637 2.6802785126606103 -1.6141184440614693
v 0.0015000054845586 0.0206731781363487 -0.0088833291083574
vn 2.9609088928874026 2.9267069009462885 -1.1061906327183617
v 0.0015000054845586 0.0215395577251911 -0.0070975846610963
vn 2.9609098952188742 3.0778479822003852 -0.5622487770423574
v 0.0015000054845586 0.0220709312707186 -0.0051852199248970
vn 2.9609088928874026 2.9267069009462885 1.1061906327183619
v 0.0015000054845586 0.0215395577251911 0.0070975846610963
vn 2.9609091826153637 2.6802785126606103 1.6141184440614689
v 0.0015000054845586 0.0206731781363487 0.0088833291083574
vn 3.0002486186208981 0.2212841624567992 3.1259279674344063
v 0.0015000054845586 0.0172499995678663 0.0115000000223517
vn 1.5707963267948963 -1.5707963267948972 1.5707963267948966
v 0.0015000054845586 -0.0172500014305115 0.0115000000223517
vn 2.9609098952188742 3.0778479822003857 0.5622487770423574
v 0.0015000054845586 0.0220709312707186 0.0051852199248970
vn 2.9099056976923152 2.2870109747711327 2.1230471894601592
v 0.0015000054845586 0.0195000004023314 0.0104843135923147
vn 2.8589068226079393 1.6662671776975084 2.6262700648106354
v 0.0015000054845586 0.0188571959733963 0.0110331634059548
vn 2.8589054448665765 0.8675694833679929 2.9868147006241754
v 0.0015000054845586 0.0180868115276098 0.0113809276372194
vn 2.8589054448665765 0.8675694833679930 -2.9868147006241754
v 0.0015000054845586 0.0180868115276098 -0.0113809276372194
vn 2.8589068226079393 1.6662671776975084 -2.6262700648106354
v 0.0015000054845586 0.0188571959733963 -0.0110331634059548
vn 2.9099056976923152 2.2870109747711327 -2.1230471894601592
v 0.0015000054845586 0.0195000004023314 -0.0104843135923147
vn -3.0002486186208981 0.2212841624567992 -3.1259279674344063
v -0.0014999945415184 0.0172499995678663 -0.0115000000223517
vn -1.5707963267948963 -1.5707963267948972 -1.5707963267948966
v -0.0014999945415184 -0.0172500014305115 -0.0115000000223517
vn -1.5707963267948963 -1.5707963267948966 1.5707963267948966
v -0.0014999945415184 -0.0172500014305115 0.0115000000223517
vn -3.0002486186208990 0.2212841624567992 3.1259279674344067
v -0.0014999945415184 0.0172499995678663 0.0115000000223517
vn -2.9609098952188742 3.0778479822003857 -0.5622487770423575
v -0.0014999945415184 0.0220709312707186 -0.0051852199248970
vn -2.9609088928874026 2.9267069009462885 -1.1061906327183619
v -0.0014999945415184 0.0215395577251911 -0.0070975846610963
vn -2.9609091826153637 2.6802785126606103 -1.6141184440614689
v -0.0014999945415184 0.0206731781363487 -0.0088833291083574
vn -2.9609091826153637 2.6802785126606103 1.6141184440614691
v -0.0014999945415184 0.0206731781363487 0.0088833291083574
vn -2.9609088928874026 2.9267069009462885 1.1061906327183619
v -0.0014999945415184 0.0215395577251911 0.0070975846610963
vn -2.9609098952188742 3.0778479822003852 0.5622487770423574
v -0.0014999945415184 0.0220709312707186 0.0051852199248970
vn -2.9099056976923148 2.2870109747711327 2.1230471894601592
v -0.0014999945415184 0.0195000004023314 0.0104843135923147
vn -2.8589054448665761 0.8675694833679929 2.9868147006241754
v -0.0014999945415184 0.0180868115276098 0.0113809276372194
vn -2.8589068226079397 1.6662671776975087 2.6262700648106350
v -0.0014999945415184 0.0188571959733963 0.0110331634059548
vn -2.9099056976923152 2.2870109747711327 -2.1230471894601592
v -0.0014999945415184 0.0195000004023314 -0.0104843135923147
vn -2.8589068226079393 1.6662671776975082 -2.6262700648106354
v -0.0014999945415184 0.0188571959733963 -0.0110331634059548
vn -2.8589054448665765 0.8675694833679930 -2.9868147006241754
v -0.0014999945415184 0.0180868115276098 -0.0113809276372194
# 36 vertices, 0 vertices normals

f 1//1 2//2 3//3
f 3//3 2//2 4//4
f 1//1 5//5 6//6
f 7//7 8//8 6//6
f 6//6 8//8 9//9
f 6//6 9//9 1//1
f 10//10 11//11 12//12
f 5//5 1//1 13//13
f 13//13 1//1 3//3
f 13//13 3//3 12//12
f 12//12 3//3 14//14
f 12//12 14//14 10//10
f 11//11 15//15 12//12
f 12//12 15//15 16//16
f 12//12 16//16 17//17
f 18//18 19//19 6//6
f 6//6 19//19 20//20
f 6//6 20//20 7//7
f 21//21 22//22 2//2
f 2//2 22//22 4//4
f 4//4 22//22 23//23
f 4//4 23//23 24//24
f 2//2 25//25 21//21
f 21//21 25//25 26//26
f 21//21 26//26 27//27
f 28//28 29//29 24//24
f 24//24 29//29 30//30
f 24//24 30//30 4//4
f 28//28 24//24 31//31
f 31//31 24//24 32//32
f 31//31 32//32 33//33
f 27//27 34//34 21//21
f 21//21 34//34 35//35
f 21//21 35//35 36//36
f 6//6 5//5 21//21
f 21//21 5//5 22//22
f 24//24 23//23 12//12
f 12//12 23//23 13//13
f 5//5 13//13 22//22
f 22//22 13//13 23//23
f 6//6 21//21 36//36
f 6//6 36//36 18//18
f 18//18 36//36 35//35
f 18//18 35//35 19//19
f 19//19 35//35 34//34
f 19//19 34//34 20//20
f 20//20 34//34 27//27
f 20//20 27//27 7//7
f 7//7 27//27 26//26
f 7//7 26//26 8//8
f 8//8 26//26 25//25
f 8//8 25//25 9//9
f 9//9 25//25 2//2
f 9//9 2//2 1//1
f 15//15 31//31 33//33
f 15//15 33//33 16//16
f 16//16 33//33 32//32
f 16//16 32//32 17//17
f 17//17 32//32 24//24
f 17//17 24//24 12//12
f 3//3 4//4 30//30
f 3//3 30//30 14//14
f 14//14 30//30 29//29
f 14//14 29//29 10//10
f 10//10 29//29 28//28
f 10//10 28//28 11//11
f 11//11 28//28 31//31
f 11//11 31//31 15//15
# 68 faces, 0 coords texture

# End of File
